{"glyphs":{"0":{"ha":1199,"x_min":0,"x_max":0,"o":"m 599 -14 b 1168 488 983 -14 1168 158 b 599 986 1168 815 983 986 b 29 488 213 986 29 817 b 599 -14 29 157 213 -14 z m 599 244 b 335 488 404 244 335 343 b 599 728 335 631 403 728 b 863 488 796 728 863 629 b 599 244 863 344 794 244 z "},"1":{"ha":1004,"x_min":0,"x_max":0,"o":"m 654 258 l 654 972 l 349 972 b 43 810 349 810 186 810 l 43 551 b 353 644 144 551 247 551 l 350 258 l 43 258 l 43 0 l 960 0 l 960 258 z "},"2":{"ha":1163,"x_min":0,"x_max":0,"o":"m 1132 681 b 601 986 1132 922 936 986 b 47 590 275 986 47 918 l 353 590 b 615 728 353 713 444 728 b 826 647 785 728 826 707 b 29 147 826 468 29 531 l 29 0 l 1118 0 l 1118 258 l 483 258 b 1132 681 549 408 1132 335 z "},"3":{"ha":1163,"x_min":0,"x_max":0,"o":"m 989 486 b 1132 696 1079 531 1132 599 b 594 986 1132 918 936 986 b 29 604 257 986 29 918 l 335 604 b 608 728 335 717 422 728 b 826 649 781 728 826 717 b 469 565 826 569 768 565 l 469 407 b 826 324 772 407 826 403 b 608 244 826 251 772 244 b 335 368 435 244 335 251 l 29 368 b 594 -14 29 54 257 -14 b 1132 276 936 -14 1132 54 b 989 486 1132 374 1079 442 z "},"4":{"ha":1218,"x_min":0,"x_max":0,"o":"m 1174 393 l 1007 393 l 1007 972 l 701 972 l 43 393 l 43 135 l 701 135 l 701 0 l 1007 0 l 1007 135 l 1174 135 z m 346 393 l 701 694 l 701 393 z "},"5":{"ha":1163,"x_min":0,"x_max":0,"o":"m 732 644 b 363 567 574 644 486 617 l 418 735 l 1063 735 l 1063 972 l 199 972 l 74 467 l 315 424 b 635 497 454 479 542 497 b 826 372 786 497 826 449 b 608 244 826 290 776 244 b 335 349 435 244 335 260 l 29 349 b 601 -14 29 50 272 -14 b 1132 325 936 -14 1132 83 b 732 644 1132 524 983 644 z "},"6":{"ha":1199,"x_min":0,"x_max":0,"o":"m 703 644 b 356 556 553 644 435 611 b 629 749 379 711 467 749 b 1089 690 810 749 951 717 l 1089 928 b 568 986 971 953 810 986 b 43 463 282 986 43 865 b 626 -14 43 149 219 -14 b 1154 324 969 -14 1154 97 b 703 644 1154 547 969 644 z m 599 224 b 349 358 411 224 349 274 b 599 490 349 443 413 490 b 849 358 797 490 849 442 b 599 224 849 274 796 224 z "},"7":{"ha":1088,"x_min":0,"x_max":0,"o":"m 28 972 l 28 714 l 651 714 b 214 0 297 519 214 250 l 519 0 b 1060 714 519 250 664 519 l 1060 972 z "},"8":{"ha":1199,"x_min":0,"x_max":0,"o":"m 963 549 b 1071 733 1035 592 1071 653 b 599 986 1071 906 939 986 b 126 733 258 986 126 907 b 235 549 126 651 163 590 b 29 292 89 501 29 417 b 599 -14 29 93 161 -14 b 1168 292 1036 -14 1168 94 b 963 549 1168 417 1108 503 z m 599 778 b 806 700 763 778 806 754 b 599 621 806 646 764 621 b 393 700 435 621 393 646 b 599 778 393 754 435 778 z m 599 214 b 335 329 399 214 335 254 b 599 443 335 403 397 443 b 863 329 801 443 863 403 b 599 214 863 256 800 214 z "},"9":{"ha":1171,"x_min":0,"x_max":0,"o":"m 558 986 b 31 649 215 986 31 875 b 482 328 31 425 215 328 b 829 417 632 328 750 361 b 556 224 806 261 718 224 b 96 282 375 224 233 256 l 96 44 b 617 -14 214 19 375 -14 b 1142 510 903 -14 1142 107 b 558 986 1142 824 965 986 z m 586 482 b 336 614 388 482 336 531 b 586 749 336 699 389 749 b 836 614 774 749 836 699 b 586 482 836 529 772 482 z "},"A":{"ha":1401,"x_min":0,"x_max":0,"o":"m 1035 0 l 1371 0 l 919 972 l 482 972 l 29 0 l 367 0 l 450 190 l 951 190 z m 547 410 l 701 758 l 854 410 z "},"Á":{"ha":1401,"x_min":0,"x_max":0,"o":"m 969 1361 l 429 1250 l 429 1072 l 969 1183 z m 1035 0 l 1371 0 l 919 972 l 482 972 l 29 0 l 367 0 l 450 190 l 951 190 z m 547 410 l 701 758 l 854 410 z "},"Ă":{"ha":1401,"x_min":0,"x_max":0,"o":"m 700 1054 b 1015 1356 872 1054 1015 1110 l 857 1356 b 700 1208 857 1250 803 1208 b 544 1356 597 1208 544 1250 l 385 1356 b 700 1054 385 1110 528 1054 z m 1035 0 l 1371 0 l 919 972 l 482 972 l 29 0 l 367 0 l 450 190 l 951 190 z m 547 410 l 701 758 l 854 410 z "},"Â":{"ha":1401,"x_min":0,"x_max":0,"o":"m 988 1072 l 988 1250 l 700 1361 l 413 1250 l 413 1072 l 700 1183 z m 1035 0 l 1371 0 l 919 972 l 482 972 l 29 0 l 367 0 l 450 190 l 951 190 z m 547 410 l 701 758 l 854 410 z "},"Ä":{"ha":1401,"x_min":0,"x_max":0,"o":"m 650 1315 l 388 1315 l 388 1090 l 650 1090 z m 1011 1315 l 749 1315 l 749 1090 l 1011 1090 z m 1035 0 l 1371 0 l 919 972 l 482 972 l 29 0 l 367 0 l 450 190 l 951 190 z m 547 410 l 701 758 l 854 410 z "},"À":{"ha":1401,"x_min":0,"x_max":0,"o":"m 971 1250 l 431 1361 l 431 1183 l 971 1072 z m 1035 0 l 1371 0 l 919 972 l 482 972 l 29 0 l 367 0 l 450 190 l 951 190 z m 547 410 l 701 758 l 854 410 z "},"Ā":{"ha":1401,"x_min":0,"x_max":0,"o":"m 1025 1264 l 374 1264 l 374 1086 l 1025 1086 z m 1035 0 l 1371 0 l 919 972 l 482 972 l 29 0 l 367 0 l 450 190 l 951 190 z m 547 410 l 701 758 l 854 410 z "},"Ą":{"ha":1401,"x_min":0,"x_max":0,"o":"m 1179 -81 b 1240 0 1179 -47 1211 -24 l 1371 0 l 919 972 l 482 972 l 29 0 l 367 0 l 450 190 l 951 190 l 1035 0 l 1099 0 b 992 -157 1028 -46 992 -96 b 1392 -319 992 -293 1132 -319 l 1392 -140 b 1179 -81 1276 -140 1179 -140 z m 547 410 l 701 758 l 854 410 z "},"Å":{"ha":1401,"x_min":0,"x_max":0,"o":"m 700 1064 b 992 1247 926 1064 992 1132 b 700 1431 992 1363 926 1431 b 408 1247 475 1431 408 1363 b 700 1064 408 1132 475 1064 z m 700 1314 b 833 1247 779 1314 833 1303 b 700 1181 833 1192 779 1181 b 568 1247 622 1181 568 1192 b 700 1314 568 1303 622 1314 z m 1035 0 l 1371 0 l 919 972 l 482 972 l 29 0 l 367 0 l 450 190 l 951 190 z m 547 410 l 701 758 l 854 410 z "},"Ã":{"ha":1401,"x_min":0,"x_max":0,"o":"m 597 1181 b 897 1064 711 1181 746 1064 b 1103 1356 1050 1064 1103 1208 l 878 1356 b 804 1253 878 1288 860 1253 b 504 1369 690 1253 656 1369 b 297 1078 351 1369 297 1225 l 524 1078 b 597 1181 524 1146 542 1181 z m 1035 0 l 1371 0 l 919 972 l 482 972 l 29 0 l 367 0 l 450 190 l 951 190 z m 547 410 l 701 758 l 854 410 z "},"Æ":{"ha":1900,"x_min":0,"x_max":0,"o":"m 1869 735 l 1869 972 l 468 972 l 29 0 l 368 0 l 450 190 l 842 190 l 842 0 l 1869 0 l 1869 238 l 1147 238 l 1147 382 l 1869 382 l 1869 590 l 1147 590 l 1147 735 z m 842 744 l 842 410 l 544 410 l 689 744 z "},"B":{"ha":1279,"x_min":0,"x_max":0,"o":"m 1107 536 b 1183 721 1154 590 1183 656 b 894 972 1183 867 1115 972 l 43 972 l 43 0 l 932 0 b 1249 286 1153 0 1249 124 b 1107 536 1249 394 1192 481 z m 349 764 l 774 764 b 878 688 826 764 878 764 b 774 611 878 611 826 611 l 349 611 z m 839 228 l 349 228 l 349 382 l 839 382 b 943 306 892 382 943 382 b 839 228 943 228 892 228 z "},"C":{"ha":1278,"x_min":0,"x_max":0,"o":"m 29 488 b 640 -14 29 157 213 -14 b 1247 424 1029 -14 1228 129 l 936 424 b 640 244 918 299 821 244 b 335 488 408 244 335 336 b 640 728 335 638 407 728 b 936 551 821 728 918 675 l 1247 551 b 640 986 1228 844 1029 986 b 29 488 213 986 29 817 z "},"Ć":{"ha":1278,"x_min":0,"x_max":0,"o":"m 368 1250 l 368 1072 l 908 1183 l 908 1361 z m 29 488 b 640 -14 29 157 213 -14 b 1247 424 1029 -14 1228 129 l 936 424 b 640 244 918 299 821 244 b 335 488 408 244 335 336 b 640 728 335 638 407 728 b 936 551 821 728 918 675 l 1247 551 b 640 986 1228 844 1029 986 b 29 488 213 986 29 817 z "},"Č":{"ha":1278,"x_min":0,"x_max":0,"o":"m 925 1186 l 925 1364 l 638 1253 l 350 1364 l 350 1186 l 638 1075 z m 640 244 b 335 488 408 244 335 336 b 640 728 335 638 407 728 b 936 551 821 728 918 675 l 1247 551 b 640 986 1228 844 1029 986 b 29 488 213 986 29 817 b 640 -14 29 157 213 -14 b 1247 424 1029 -14 1228 129 l 936 424 b 640 244 918 299 821 244 z "},"Ç":{"ha":1278,"x_min":0,"x_max":0,"o":"m 640 244 b 335 488 408 244 335 336 b 640 728 335 638 407 728 b 936 551 821 728 918 675 l 1247 551 b 640 986 1228 844 1029 986 b 29 488 213 986 29 817 b 551 -11 29 181 188 11 l 535 -49 l 617 -129 b 761 -149 725 -104 761 -115 b 508 -197 761 -197 690 -224 l 508 -319 b 947 -161 722 -346 947 -319 b 703 -65 947 -28 788 -39 l 724 -11 b 1247 424 1057 8 1229 151 l 936 424 b 640 244 918 299 821 244 z "},"Ċ":{"ha":1278,"x_min":0,"x_max":0,"o":"m 488 1315 l 488 1090 l 790 1090 l 790 1315 z m 29 488 b 640 -14 29 157 213 -14 b 1247 424 1029 -14 1228 129 l 936 424 b 640 244 918 299 821 244 b 335 488 408 244 335 336 b 640 728 335 638 407 728 b 936 551 821 728 918 675 l 1247 551 b 640 986 1228 844 1029 986 b 29 488 213 986 29 817 z "},"D":{"ha":1251,"x_min":0,"x_max":0,"o":"m 758 972 l 43 972 l 43 0 l 758 0 b 1221 486 1000 0 1221 156 b 758 972 1221 817 1000 972 z m 654 258 l 349 258 l 349 714 l 654 714 b 915 486 788 714 915 694 b 654 258 915 278 788 258 z "},"Ð":{"ha":1363,"x_min":0,"x_max":0,"o":"m 860 972 l 144 972 l 144 575 l 43 575 l 43 397 l 144 397 l 144 0 l 860 0 b 1322 486 1101 0 1322 156 b 860 972 1322 817 1101 972 z m 756 258 l 450 258 l 450 397 l 710 397 l 710 575 l 450 575 l 450 714 l 756 714 b 1017 486 889 714 1017 694 b 756 258 1017 278 889 258 z "},"Ď":{"ha":1251,"x_min":0,"x_max":0,"o":"m 821 1186 l 821 1364 l 533 1253 l 246 1364 l 246 1186 l 533 1075 z m 758 972 l 43 972 l 43 0 l 758 0 b 1221 486 1000 0 1221 156 b 758 972 1221 817 1000 972 z m 654 258 l 349 258 l 349 714 l 654 714 b 915 486 788 714 915 694 b 654 258 915 278 788 258 z "},"Đ":{"ha":1363,"x_min":0,"x_max":0,"o":"m 860 972 l 144 972 l 144 575 l 43 575 l 43 397 l 144 397 l 144 0 l 860 0 b 1322 486 1101 0 1322 156 b 860 972 1322 817 1101 972 z m 756 258 l 450 258 l 450 397 l 710 397 l 710 575 l 450 575 l 450 714 l 756 714 b 1017 486 889 714 1017 694 b 756 258 1017 278 889 258 z "},"E":{"ha":1101,"x_min":0,"x_max":0,"o":"m 1071 735 l 1071 972 l 43 972 l 43 0 l 1071 0 l 1071 238 l 349 238 l 349 382 l 1071 382 l 1071 590 l 349 590 l 349 735 z "},"É":{"ha":1101,"x_min":0,"x_max":0,"o":"m 826 1361 l 286 1250 l 286 1072 l 826 1183 z m 1071 735 l 1071 972 l 43 972 l 43 0 l 1071 0 l 1071 238 l 349 238 l 349 382 l 1071 382 l 1071 590 l 349 590 l 349 735 z "},"Ě":{"ha":1101,"x_min":0,"x_max":0,"o":"m 843 1186 l 843 1364 l 556 1253 l 268 1364 l 268 1186 l 556 1075 z m 1071 735 l 1071 972 l 43 972 l 43 0 l 1071 0 l 1071 238 l 349 238 l 349 382 l 1071 382 l 1071 590 l 349 590 l 349 735 z "},"Ê":{"ha":1101,"x_min":0,"x_max":0,"o":"m 844 1072 l 844 1250 l 557 1361 l 269 1250 l 269 1072 l 557 1183 z m 1071 735 l 1071 972 l 43 972 l 43 0 l 1071 0 l 1071 238 l 349 238 l 349 382 l 1071 382 l 1071 590 l 349 590 l 349 735 z "},"Ë":{"ha":1101,"x_min":0,"x_max":0,"o":"m 507 1315 l 244 1315 l 244 1090 l 507 1090 z m 868 1315 l 606 1315 l 606 1090 l 868 1090 z m 1071 735 l 1071 972 l 43 972 l 43 0 l 1071 0 l 1071 238 l 349 238 l 349 382 l 1071 382 l 1071 590 l 349 590 l 349 735 z "},"Ė":{"ha":1101,"x_min":0,"x_max":0,"o":"m 708 1315 l 406 1315 l 406 1090 l 708 1090 z m 1071 735 l 1071 972 l 43 972 l 43 0 l 1071 0 l 1071 238 l 349 238 l 349 382 l 1071 382 l 1071 590 l 349 590 l 349 735 z "},"È":{"ha":1101,"x_min":0,"x_max":0,"o":"m 828 1250 l 288 1361 l 288 1183 l 828 1072 z m 1071 735 l 1071 972 l 43 972 l 43 0 l 1071 0 l 1071 238 l 349 238 l 349 382 l 1071 382 l 1071 590 l 349 590 l 349 735 z "},"Ē":{"ha":1101,"x_min":0,"x_max":0,"o":"m 882 1264 l 231 1264 l 231 1086 l 882 1086 z m 1071 735 l 1071 972 l 43 972 l 43 0 l 1071 0 l 1071 238 l 349 238 l 349 382 l 1071 382 l 1071 590 l 349 590 l 349 735 z "},"Ę":{"ha":1101,"x_min":0,"x_max":0,"o":"m 874 -81 b 935 0 874 -47 906 -24 l 1071 0 l 1071 238 l 349 238 l 349 382 l 1071 382 l 1071 590 l 349 590 l 349 735 l 1071 735 l 1071 972 l 43 972 l 43 0 l 793 0 b 686 -157 722 -46 686 -96 b 1086 -319 686 -293 826 -319 l 1086 -140 b 874 -81 971 -140 874 -140 z "},"F":{"ha":1101,"x_min":0,"x_max":0,"o":"m 1071 714 l 1071 972 l 43 972 l 43 0 l 349 0 l 349 281 l 988 281 l 988 539 l 349 539 l 349 714 z "},"G":{"ha":1278,"x_min":0,"x_max":0,"o":"m 624 347 l 936 347 b 644 214 926 278 835 214 b 335 478 376 214 335 360 b 644 728 335 594 375 728 b 936 589 853 728 922 650 l 1247 589 b 644 986 1232 842 1033 986 b 29 488 244 986 29 817 b 603 -14 29 156 244 -14 b 1033 146 808 -14 946 49 l 1051 0 l 1247 0 l 1247 525 l 624 525 z "},"Ğ":{"ha":1278,"x_min":0,"x_max":0,"o":"m 639 1054 b 954 1356 811 1054 954 1110 l 796 1356 b 639 1208 796 1250 742 1208 b 483 1356 536 1208 483 1250 l 324 1356 b 639 1054 324 1110 467 1054 z m 624 347 l 936 347 b 644 214 926 278 835 214 b 335 478 376 214 335 360 b 644 728 335 594 375 728 b 936 589 853 728 922 650 l 1247 589 b 644 986 1232 842 1033 986 b 29 488 244 986 29 817 b 603 -14 29 156 244 -14 b 1033 146 808 -14 946 49 l 1051 0 l 1247 0 l 1247 525 l 624 525 z "},"Ģ":{"ha":1278,"x_min":0,"x_max":0,"o":"m 624 347 l 936 347 b 644 214 926 278 835 214 b 335 478 376 214 335 360 b 644 728 335 594 375 728 b 936 589 853 728 922 650 l 1247 589 b 644 986 1232 842 1033 986 b 29 488 244 986 29 817 b 603 -14 29 156 244 -14 b 1033 146 808 -14 946 49 l 1051 0 l 1247 0 l 1247 525 l 624 525 z m 515 -310 l 603 -310 l 515 -462 l 635 -462 l 763 -310 l 763 -151 l 515 -151 z "},"Ġ":{"ha":1278,"x_min":0,"x_max":0,"o":"m 790 1315 l 488 1315 l 488 1090 l 790 1090 z m 624 347 l 936 347 b 644 214 926 278 835 214 b 335 478 376 214 335 360 b 644 728 335 594 375 728 b 936 589 853 728 922 650 l 1247 589 b 644 986 1232 842 1033 986 b 29 488 244 986 29 817 b 603 -14 29 156 244 -14 b 1033 146 808 -14 946 49 l 1051 0 l 1247 0 l 1247 525 l 624 525 z "},"H":{"ha":1379,"x_min":0,"x_max":0,"o":"m 1029 972 l 1029 615 l 349 615 l 349 972 l 43 972 l 43 0 l 349 0 l 349 357 l 1029 357 l 1029 0 l 1335 0 l 1335 972 z "},"Ħ":{"ha":1379,"x_min":0,"x_max":0,"o":"m 1383 881 l 1335 881 l 1335 972 l 1029 972 l 1029 881 l 349 881 l 349 972 l 43 972 l 43 881 l -6 881 l -6 703 l 43 703 l 43 0 l 349 0 l 349 357 l 1029 357 l 1029 0 l 1335 0 l 1335 703 l 1383 703 z m 1029 615 l 349 615 l 349 703 l 1029 703 z "},"I":{"ha":393,"x_min":0,"x_max":0,"o":"m 349 972 l 43 972 l 43 0 l 349 0 z "},"Í":{"ha":393,"x_min":0,"x_max":0,"o":"m -75 1250 l -75 1072 l 465 1183 l 465 1361 z m 349 972 l 43 972 l 43 0 l 349 0 z "},"Î":{"ha":393,"x_min":0,"x_max":0,"o":"m 196 1361 l -92 1250 l -92 1072 l 196 1183 l 483 1072 l 483 1250 z m 43 0 l 349 0 l 349 972 l 43 972 z "},"Ï":{"ha":393,"x_min":0,"x_max":0,"o":"m -117 1315 l -117 1090 l 146 1090 l 146 1315 z m 244 1315 l 244 1090 l 507 1090 l 507 1315 z m 349 972 l 43 972 l 43 0 l 349 0 z "},"İ":{"ha":393,"x_min":0,"x_max":0,"o":"m 44 1315 l 44 1090 l 347 1090 l 347 1315 z m 349 972 l 43 972 l 43 0 l 349 0 z "},"Ì":{"ha":393,"x_min":0,"x_max":0,"o":"m 467 1250 l -74 1361 l -74 1183 l 467 1072 z m 349 972 l 43 972 l 43 0 l 349 0 z "},"Ī":{"ha":393,"x_min":0,"x_max":0,"o":"m -131 1264 l -131 1086 l 521 1086 l 521 1264 z m 349 972 l 43 972 l 43 0 l 349 0 z "},"Į":{"ha":393,"x_min":0,"x_max":0,"o":"m 242 -81 b 303 0 242 -47 274 -24 l 349 0 l 349 972 l 43 972 l 43 0 l 161 0 b 54 -157 90 -46 54 -96 b 454 -319 54 -293 194 -319 l 454 -140 b 242 -81 339 -140 242 -140 z "},"J":{"ha":1254,"x_min":0,"x_max":0,"o":"m 1210 972 l 517 972 l 517 714 l 904 714 l 904 488 b 626 244 904 369 867 244 b 349 488 386 244 349 368 l 43 488 b 626 -14 43 149 226 -14 b 1210 488 1025 -14 1210 150 z "},"K":{"ha":1396,"x_min":0,"x_max":0,"o":"m 1365 972 l 919 972 l 349 531 l 349 972 l 43 972 l 43 0 l 349 0 l 349 186 l 571 358 l 943 0 l 1365 0 l 790 528 z "},"Ķ":{"ha":1396,"x_min":0,"x_max":0,"o":"m 1365 972 l 919 972 l 349 531 l 349 972 l 43 972 l 43 0 l 349 0 l 349 186 l 571 358 l 943 0 l 1365 0 l 790 528 z m 581 -310 l 668 -310 l 581 -462 l 700 -462 l 828 -310 l 828 -151 l 581 -151 z "},"L":{"ha":1074,"x_min":0,"x_max":0,"o":"m 349 258 l 349 972 l 43 972 l 43 0 l 1043 0 l 1043 258 z "},"Ĺ":{"ha":1074,"x_min":0,"x_max":0,"o":"m 583 1361 l 43 1250 l 43 1072 l 583 1183 z m 349 258 l 349 972 l 43 972 l 43 0 l 1043 0 l 1043 258 z "},"Ľ":{"ha":1074,"x_min":0,"x_max":0,"o":"m 600 1186 l 600 1364 l 313 1253 l 25 1364 l 25 1186 l 313 1075 z m 349 258 l 349 972 l 43 972 l 43 0 l 1043 0 l 1043 258 z "},"Ļ":{"ha":1074,"x_min":0,"x_max":0,"o":"m 349 258 l 349 972 l 43 972 l 43 0 l 1043 0 l 1043 258 z m 419 -310 l 507 -310 l 419 -462 l 539 -462 l 667 -310 l 667 -151 l 419 -151 z "},"Ł":{"ha":1186,"x_min":0,"x_max":0,"o":"m 447 258 l 447 493 l 768 607 l 768 818 l 447 704 l 447 972 l 142 972 l 142 594 l 43 560 l 43 349 l 142 383 l 142 0 l 1142 0 l 1142 258 z "},"M":{"ha":1576,"x_min":0,"x_max":0,"o":"m 1532 972 l 1142 972 l 789 351 l 435 972 l 43 972 l 43 0 l 349 0 l 349 568 l 683 0 l 892 0 l 1226 567 l 1226 0 l 1532 0 z "},"N":{"ha":1340,"x_min":0,"x_max":0,"o":"m 990 972 l 990 314 l 450 972 l 43 972 l 43 0 l 349 0 l 349 661 l 890 0 l 1296 0 l 1296 972 z "},"Ń":{"ha":1340,"x_min":0,"x_max":0,"o":"m 939 1361 l 399 1250 l 399 1072 l 939 1183 z m 990 972 l 990 314 l 450 972 l 43 972 l 43 0 l 349 0 l 349 661 l 890 0 l 1296 0 l 1296 972 z "},"Ň":{"ha":1340,"x_min":0,"x_max":0,"o":"m 956 1186 l 956 1364 l 668 1253 l 381 1364 l 381 1186 l 668 1075 z m 990 972 l 990 314 l 450 972 l 43 972 l 43 0 l 349 0 l 349 661 l 890 0 l 1296 0 l 1296 972 z "},"Ņ":{"ha":1340,"x_min":0,"x_max":0,"o":"m 990 972 l 990 314 l 450 972 l 43 972 l 43 0 l 349 0 l 349 661 l 890 0 l 1296 0 l 1296 972 z m 546 -310 l 633 -310 l 546 -462 l 665 -462 l 793 -310 l 793 -151 l 546 -151 z "},"Ŋ":{"ha":1340,"x_min":0,"x_max":0,"o":"m 990 972 l 990 314 l 450 972 l 43 972 l 43 0 l 349 0 l 349 661 l 890 0 l 990 0 b 846 -137 990 -90 960 -137 b 664 -119 774 -137 732 -129 l 664 -350 b 910 -375 743 -367 828 -375 b 1296 0 1182 -375 1296 -240 l 1296 972 z "},"Ñ":{"ha":1340,"x_min":0,"x_max":0,"o":"m 567 1181 b 867 1064 681 1181 715 1064 b 1072 1356 1019 1064 1072 1208 l 847 1356 b 774 1253 847 1288 829 1253 b 474 1369 660 1253 625 1369 b 267 1078 321 1369 267 1225 l 493 1078 b 567 1181 493 1146 511 1181 z m 990 972 l 990 314 l 450 972 l 43 972 l 43 0 l 349 0 l 349 661 l 890 0 l 1296 0 l 1296 972 z "},"O":{"ha":1282,"x_min":0,"x_max":0,"o":"m 640 -14 b 1251 488 1067 -14 1251 158 b 640 986 1251 815 1067 986 b 29 488 213 986 29 817 b 640 -14 29 157 213 -14 z m 640 244 b 335 488 404 244 335 336 b 640 728 335 638 403 728 b 946 488 879 728 946 636 b 640 244 946 338 878 244 z "},"Ó":{"ha":1282,"x_min":0,"x_max":0,"o":"m 369 1250 l 369 1072 l 910 1183 l 910 1361 z m 640 -14 b 1251 488 1067 -14 1251 158 b 640 986 1251 815 1067 986 b 29 488 213 986 29 817 b 640 -14 29 157 213 -14 z m 640 244 b 335 488 404 244 335 336 b 640 728 335 638 403 728 b 946 488 879 728 946 636 b 640 244 946 338 878 244 z "},"Ô":{"ha":1282,"x_min":0,"x_max":0,"o":"m 928 1072 l 928 1250 l 640 1361 l 353 1250 l 353 1072 l 640 1183 z m 640 986 b 29 488 213 986 29 817 b 640 -14 29 157 213 -14 b 1251 488 1067 -14 1251 158 b 640 986 1251 815 1067 986 z m 640 244 b 335 488 404 244 335 336 b 640 728 335 638 403 728 b 946 488 879 728 946 636 b 640 244 946 338 878 244 z "},"Ö":{"ha":1282,"x_min":0,"x_max":0,"o":"m 328 1315 l 328 1090 l 590 1090 l 590 1315 z m 689 1315 l 689 1090 l 951 1090 l 951 1315 z m 640 -14 b 1251 488 1067 -14 1251 158 b 640 986 1251 815 1067 986 b 29 488 213 986 29 817 b 640 -14 29 157 213 -14 z m 640 244 b 335 488 404 244 335 336 b 640 728 335 638 403 728 b 946 488 879 728 946 636 b 640 244 946 338 878 244 z "},"Ò":{"ha":1282,"x_min":0,"x_max":0,"o":"m 911 1250 l 371 1361 l 371 1183 l 911 1072 z m 640 -14 b 1251 488 1067 -14 1251 158 b 640 986 1251 815 1067 986 b 29 488 213 986 29 817 b 640 -14 29 157 213 -14 z m 640 244 b 335 488 404 244 335 336 b 640 728 335 638 403 728 b 946 488 879 728 946 636 b 640 244 946 338 878 244 z "},"Ő":{"ha":1282,"x_min":0,"x_max":0,"o":"m 311 1267 l 311 1083 l 599 1194 l 599 1378 z m 682 1267 l 682 1083 l 969 1194 l 969 1378 z m 640 -14 b 1251 488 1067 -14 1251 158 b 640 986 1251 815 1067 986 b 29 488 213 986 29 817 b 640 -14 29 157 213 -14 z m 640 244 b 335 488 404 244 335 336 b 640 728 335 638 403 728 b 946 488 879 728 946 636 b 640 244 946 338 878 244 z "},"Ō":{"ha":1282,"x_min":0,"x_max":0,"o":"m 314 1264 l 314 1086 l 965 1086 l 965 1264 z m 640 -14 b 1251 488 1067 -14 1251 158 b 640 986 1251 815 1067 986 b 29 488 213 986 29 817 b 640 -14 29 157 213 -14 z m 640 244 b 335 488 404 244 335 336 b 640 728 335 638 403 728 b 946 488 879 728 946 636 b 640 244 946 338 878 244 z "},"Ø":{"ha":1282,"x_min":0,"x_max":0,"o":"m 892 960 l 931 1090 l 711 1090 l 679 986 l 640 986 b 29 488 213 986 29 817 b 389 11 29 231 139 71 l 350 -118 l 569 -118 l 601 -14 l 640 -14 b 1251 488 1067 -14 1251 158 b 892 960 1251 742 1140 901 z m 335 488 b 603 726 335 629 396 718 l 465 269 b 335 488 368 307 335 383 z m 678 246 l 815 703 b 946 488 914 667 946 590 b 678 246 946 346 885 256 z "},"Õ":{"ha":1282,"x_min":0,"x_max":0,"o":"m 238 1078 l 464 1078 b 538 1181 464 1146 482 1181 b 838 1064 651 1181 686 1064 b 1043 1356 990 1064 1043 1208 l 818 1356 b 744 1253 818 1288 800 1253 b 444 1369 631 1253 596 1369 b 238 1078 292 1369 238 1225 z m 640 -14 b 1251 488 1067 -14 1251 158 b 640 986 1251 815 1067 986 b 29 488 213 986 29 817 b 640 -14 29 157 213 -14 z m 640 244 b 335 488 404 244 335 336 b 640 728 335 638 403 728 b 946 488 879 728 946 636 b 640 244 946 338 878 244 z "},"Œ":{"ha":2115,"x_min":0,"x_max":0,"o":"m 2086 735 l 2086 972 l 1058 972 l 1058 894 b 640 986 960 956 822 986 b 29 488 213 986 29 817 b 640 -14 29 157 213 -14 b 1058 79 822 -14 960 18 l 1058 0 l 2086 0 l 2086 238 l 1364 238 l 1364 382 l 2086 382 l 2086 590 l 1364 590 l 1364 735 z m 640 244 b 335 488 404 244 335 336 b 640 728 335 638 403 728 b 946 488 879 728 946 636 b 640 244 946 338 878 244 z "},"P":{"ha":1210,"x_min":0,"x_max":0,"o":"m 807 972 l 43 972 l 43 0 l 349 0 l 349 243 l 807 243 b 1179 608 1028 243 1179 392 b 807 972 1179 825 1028 972 z m 738 501 l 349 501 l 349 714 l 738 714 b 874 608 794 714 874 714 b 738 501 874 501 794 501 z "},"Þ":{"ha":1210,"x_min":0,"x_max":0,"o":"m 807 851 l 349 851 l 349 972 l 43 972 l 43 0 l 349 0 l 349 122 l 807 122 b 1179 488 1028 122 1179 271 b 807 851 1179 704 1028 851 z m 738 381 l 349 381 l 349 593 l 738 593 b 874 488 794 593 874 593 b 738 381 874 381 794 381 z "},"Q":{"ha":1417,"x_min":0,"x_max":0,"o":"m 1372 74 l 1204 242 b 1251 488 1236 311 1251 393 b 640 986 1251 815 1067 986 b 29 488 213 986 29 817 b 640 -14 29 157 213 -14 b 975 38 776 -14 888 4 l 1156 -143 z m 640 244 b 335 488 404 244 335 336 b 640 728 335 638 403 728 b 946 488 879 728 946 636 b 640 244 946 338 878 244 z "},"R":{"ha":1210,"x_min":0,"x_max":0,"o":"m 1179 608 b 807 972 1179 825 1028 972 l 43 972 l 43 0 l 349 0 l 349 243 l 658 243 l 803 0 l 1164 0 l 989 283 b 1179 608 1107 340 1179 458 z m 349 714 l 738 714 b 874 608 794 714 874 714 b 738 501 874 501 794 501 l 349 501 z "},"Ŕ":{"ha":1210,"x_min":0,"x_max":0,"o":"m 865 1361 l 325 1250 l 325 1072 l 865 1183 z m 1179 608 b 807 972 1179 825 1028 972 l 43 972 l 43 0 l 349 0 l 349 243 l 658 243 l 803 0 l 1164 0 l 989 283 b 1179 608 1107 340 1179 458 z m 349 714 l 738 714 b 874 608 794 714 874 714 b 738 501 874 501 794 501 l 349 501 z "},"Ř":{"ha":1210,"x_min":0,"x_max":0,"o":"m 882 1186 l 882 1364 l 594 1253 l 307 1364 l 307 1186 l 594 1075 z m 1179 608 b 807 972 1179 825 1028 972 l 43 972 l 43 0 l 349 0 l 349 243 l 658 243 l 803 0 l 1164 0 l 989 283 b 1179 608 1107 340 1179 458 z m 349 714 l 738 714 b 874 608 794 714 874 714 b 738 501 874 501 794 501 l 349 501 z "},"Ŗ":{"ha":1210,"x_min":0,"x_max":0,"o":"m 1179 608 b 807 972 1179 825 1028 972 l 43 972 l 43 0 l 349 0 l 349 243 l 658 243 l 803 0 l 1164 0 l 989 283 b 1179 608 1107 340 1179 458 z m 349 714 l 738 714 b 874 608 794 714 874 714 b 738 501 874 501 794 501 l 349 501 z m 472 -310 l 560 -310 l 472 -462 l 592 -462 l 719 -310 l 719 -151 l 472 -151 z "},"S":{"ha":1301,"x_min":0,"x_max":0,"o":"m 29 339 b 658 -14 29 54 260 -14 b 1271 310 1038 -14 1271 46 b 650 603 1271 561 1033 585 b 357 678 404 614 357 621 b 611 749 357 732 404 749 b 924 650 829 749 924 729 l 1229 650 b 639 986 1229 894 1013 986 b 51 693 265 986 51 907 b 650 383 51 469 219 400 b 965 301 922 372 965 364 b 672 224 965 246 910 224 b 335 339 400 224 335 264 z "},"Ś":{"ha":1301,"x_min":0,"x_max":0,"o":"m 379 1250 l 379 1072 l 919 1183 l 919 1361 z m 29 339 b 658 -14 29 54 260 -14 b 1271 310 1038 -14 1271 46 b 650 603 1271 561 1033 585 b 357 678 404 614 357 621 b 611 749 357 732 404 749 b 924 650 829 749 924 729 l 1229 650 b 639 986 1229 894 1013 986 b 51 693 265 986 51 907 b 650 383 51 469 219 400 b 965 301 922 372 965 364 b 672 224 965 246 910 224 b 335 339 400 224 335 264 z "},"Š":{"ha":1301,"x_min":0,"x_max":0,"o":"m 936 1186 l 936 1364 l 649 1253 l 361 1364 l 361 1186 l 649 1075 z m 650 603 b 357 678 404 614 357 621 b 611 749 357 732 404 749 b 924 650 829 749 924 729 l 1229 650 b 639 986 1229 894 1013 986 b 51 693 265 986 51 907 b 650 383 51 469 219 400 b 965 301 922 372 965 364 b 672 224 965 246 910 224 b 335 339 400 224 335 264 l 29 339 b 658 -14 29 54 260 -14 b 1271 310 1038 -14 1271 46 b 650 603 1271 561 1033 585 z "},"Ş":{"ha":1301,"x_min":0,"x_max":0,"o":"m 1271 310 b 650 603 1271 561 1033 585 b 357 678 404 614 357 621 b 611 749 357 732 404 749 b 924 650 829 749 924 729 l 1229 650 b 639 986 1229 894 1013 986 b 51 693 265 986 51 907 b 650 383 51 469 219 400 b 965 301 922 372 965 364 b 672 224 965 246 910 224 b 335 339 400 224 335 264 l 29 339 b 563 -12 29 78 224 -1 l 546 -49 l 628 -129 b 772 -149 736 -104 772 -115 b 519 -197 772 -197 701 -224 l 519 -319 b 958 -161 733 -346 958 -319 b 714 -65 958 -28 799 -39 l 733 -12 b 1271 310 1068 -4 1271 64 z "},"Ș":{"ha":1301,"x_min":0,"x_max":0,"o":"m 29 339 b 658 -14 29 54 260 -14 b 1271 310 1038 -14 1271 46 b 650 603 1271 561 1033 585 b 357 678 404 614 357 621 b 611 749 357 732 404 749 b 924 650 829 749 924 729 l 1229 650 b 639 986 1229 894 1013 986 b 51 693 265 986 51 907 b 650 383 51 469 219 400 b 965 301 922 372 965 364 b 672 224 965 246 910 224 b 335 339 400 224 335 264 z m 526 -151 l 526 -310 l 614 -310 l 526 -462 l 646 -462 l 774 -310 l 774 -151 z "},"T":{"ha":1254,"x_min":0,"x_max":0,"o":"m 1224 972 l 29 972 l 29 714 l 474 714 l 474 0 l 779 0 l 779 714 l 1224 714 z "},"Ŧ":{"ha":1254,"x_min":0,"x_max":0,"o":"m 1224 714 l 1224 972 l 29 972 l 29 714 l 474 714 l 474 492 l 281 492 l 281 314 l 474 314 l 474 0 l 779 0 l 779 314 l 947 314 l 947 492 l 779 492 l 779 714 z "},"Ť":{"ha":1254,"x_min":0,"x_max":0,"o":"m 913 1186 l 913 1364 l 625 1253 l 338 1364 l 338 1186 l 625 1075 z m 1224 972 l 29 972 l 29 714 l 474 714 l 474 0 l 779 0 l 779 714 l 1224 714 z "},"Ţ":{"ha":1254,"x_min":0,"x_max":0,"o":"m 779 0 l 779 714 l 1224 714 l 1224 972 l 29 972 l 29 714 l 474 714 l 474 0 l 544 0 l 522 -49 l 604 -129 b 749 -149 713 -104 749 -115 b 496 -197 749 -197 678 -224 l 496 -319 b 935 -161 710 -346 935 -319 b 690 -65 935 -28 775 -39 l 715 0 z "},"Ț":{"ha":1254,"x_min":0,"x_max":0,"o":"m 1224 972 l 29 972 l 29 714 l 474 714 l 474 0 l 779 0 l 779 714 l 1224 714 z m 503 -310 l 590 -310 l 503 -462 l 622 -462 l 750 -310 l 750 -151 l 503 -151 z "},"U":{"ha":1310,"x_min":0,"x_max":0,"o":"m 1265 488 l 1265 972 l 960 972 l 960 488 b 654 244 960 369 922 244 b 349 488 386 244 349 368 l 349 972 l 43 972 l 43 488 b 654 -14 43 149 226 -14 b 1265 488 1081 -14 1265 150 z "},"Ú":{"ha":1310,"x_min":0,"x_max":0,"o":"m 383 1250 l 383 1072 l 924 1183 l 924 1361 z m 1265 488 l 1265 972 l 960 972 l 960 488 b 654 244 960 369 922 244 b 349 488 386 244 349 368 l 349 972 l 43 972 l 43 488 b 654 -14 43 149 226 -14 b 1265 488 1081 -14 1265 150 z "},"Û":{"ha":1310,"x_min":0,"x_max":0,"o":"m 942 1072 l 942 1250 l 654 1361 l 367 1250 l 367 1072 l 654 1183 z m 960 972 l 960 488 b 654 244 960 369 922 244 b 349 488 386 244 349 368 l 349 972 l 43 972 l 43 488 b 654 -14 43 149 226 -14 b 1265 488 1081 -14 1265 150 l 1265 972 z "},"Ü":{"ha":1310,"x_min":0,"x_max":0,"o":"m 342 1315 l 342 1090 l 604 1090 l 604 1315 z m 703 1315 l 703 1090 l 965 1090 l 965 1315 z m 1265 488 l 1265 972 l 960 972 l 960 488 b 654 244 960 369 922 244 b 349 488 386 244 349 368 l 349 972 l 43 972 l 43 488 b 654 -14 43 149 226 -14 b 1265 488 1081 -14 1265 150 z "},"Ù":{"ha":1310,"x_min":0,"x_max":0,"o":"m 925 1250 l 385 1361 l 385 1183 l 925 1072 z m 1265 488 l 1265 972 l 960 972 l 960 488 b 654 244 960 369 922 244 b 349 488 386 244 349 368 l 349 972 l 43 972 l 43 488 b 654 -14 43 149 226 -14 b 1265 488 1081 -14 1265 150 z "},"Ű":{"ha":1310,"x_min":0,"x_max":0,"o":"m 325 1267 l 325 1083 l 613 1194 l 613 1378 z m 696 1267 l 696 1083 l 983 1194 l 983 1378 z m 1265 488 l 1265 972 l 960 972 l 960 488 b 654 244 960 369 922 244 b 349 488 386 244 349 368 l 349 972 l 43 972 l 43 488 b 654 -14 43 149 226 -14 b 1265 488 1081 -14 1265 150 z "},"Ū":{"ha":1310,"x_min":0,"x_max":0,"o":"m 328 1264 l 328 1086 l 979 1086 l 979 1264 z m 1265 488 l 1265 972 l 960 972 l 960 488 b 654 244 960 369 922 244 b 349 488 386 244 349 368 l 349 972 l 43 972 l 43 488 b 654 -14 43 149 226 -14 b 1265 488 1081 -14 1265 150 z "},"Ų":{"ha":1310,"x_min":0,"x_max":0,"o":"m 960 972 l 960 488 b 654 244 960 369 922 244 b 349 488 386 244 349 368 l 349 972 l 43 972 l 43 488 b 654 -14 43 149 226 -14 l 674 -14 b 586 -157 615 -56 586 -101 b 986 -319 586 -293 726 -319 l 986 -140 b 774 -81 871 -140 774 -140 b 832 -3 774 -49 803 -25 b 1265 488 1132 40 1265 201 l 1265 972 z "},"Ů":{"ha":1310,"x_min":0,"x_max":0,"o":"m 654 1064 b 946 1247 881 1064 946 1132 b 654 1431 946 1363 881 1431 b 363 1247 429 1431 363 1363 b 654 1064 363 1132 429 1064 z m 654 1181 b 522 1247 576 1181 522 1192 b 654 1314 522 1303 576 1314 b 788 1247 733 1314 788 1303 b 654 1181 788 1192 733 1181 z m 1265 488 l 1265 972 l 960 972 l 960 488 b 654 244 960 369 922 244 b 349 488 386 244 349 368 l 349 972 l 43 972 l 43 488 b 654 -14 43 149 226 -14 b 1265 488 1081 -14 1265 150 z "},"V":{"ha":1401,"x_min":0,"x_max":0,"o":"m 1032 972 l 700 214 l 368 972 l 29 972 l 482 0 l 919 0 l 1371 972 z "},"W":{"ha":2090,"x_min":0,"x_max":0,"o":"m 1732 972 l 1488 240 l 1229 972 l 861 972 l 603 240 l 358 972 l 29 972 l 381 0 l 822 0 l 1046 658 l 1268 0 l 1710 0 l 2060 972 z "},"Ẃ":{"ha":2090,"x_min":0,"x_max":0,"o":"m 1314 1361 l 774 1250 l 774 1072 l 1314 1183 z m 1732 972 l 1488 240 l 1229 972 l 861 972 l 603 240 l 358 972 l 29 972 l 381 0 l 822 0 l 1046 658 l 1268 0 l 1710 0 l 2060 972 z "},"Ŵ":{"ha":2090,"x_min":0,"x_max":0,"o":"m 1332 1072 l 1332 1250 l 1044 1361 l 757 1250 l 757 1072 l 1044 1183 z m 1732 972 l 1488 240 l 1229 972 l 861 972 l 603 240 l 358 972 l 29 972 l 381 0 l 822 0 l 1046 658 l 1268 0 l 1710 0 l 2060 972 z "},"Ẅ":{"ha":2090,"x_min":0,"x_max":0,"o":"m 994 1315 l 732 1315 l 732 1090 l 994 1090 z m 1356 1315 l 1093 1315 l 1093 1090 l 1356 1090 z m 1732 972 l 1488 240 l 1229 972 l 861 972 l 603 240 l 358 972 l 29 972 l 381 0 l 822 0 l 1046 658 l 1268 0 l 1710 0 l 2060 972 z "},"Ẁ":{"ha":2090,"x_min":0,"x_max":0,"o":"m 1315 1250 l 775 1361 l 775 1183 l 1315 1072 z m 1732 972 l 1488 240 l 1229 972 l 861 972 l 603 240 l 358 972 l 29 972 l 381 0 l 822 0 l 1046 658 l 1268 0 l 1710 0 l 2060 972 z "},"X":{"ha":1493,"x_min":0,"x_max":0,"o":"m 29 0 l 439 0 l 746 306 l 1054 0 l 1463 0 l 960 486 l 1463 972 l 1054 972 l 746 667 l 439 972 l 29 972 l 533 486 z "},"Y":{"ha":1410,"x_min":0,"x_max":0,"o":"m 551 319 l 551 0 l 857 0 l 857 319 l 1379 972 l 1021 972 l 704 569 l 389 972 l 29 972 z "},"Ý":{"ha":1410,"x_min":0,"x_max":0,"o":"m 433 1250 l 433 1072 l 974 1183 l 974 1361 z m 551 319 l 551 0 l 857 0 l 857 319 l 1379 972 l 1021 972 l 704 569 l 389 972 l 29 972 z "},"Ŷ":{"ha":1410,"x_min":0,"x_max":0,"o":"m 992 1072 l 992 1250 l 704 1361 l 417 1250 l 417 1072 l 704 1183 z m 1021 972 l 704 569 l 389 972 l 29 972 l 551 319 l 551 0 l 857 0 l 857 319 l 1379 972 z "},"Ÿ":{"ha":1410,"x_min":0,"x_max":0,"o":"m 392 1315 l 392 1090 l 654 1090 l 654 1315 z m 753 1315 l 753 1090 l 1015 1090 l 1015 1315 z m 551 319 l 551 0 l 857 0 l 857 319 l 1379 972 l 1021 972 l 704 569 l 389 972 l 29 972 z "},"Ỳ":{"ha":1410,"x_min":0,"x_max":0,"o":"m 975 1250 l 435 1361 l 435 1183 l 975 1072 z m 551 319 l 551 0 l 857 0 l 857 319 l 1379 972 l 1021 972 l 704 569 l 389 972 l 29 972 z "},"Z":{"ha":1185,"x_min":0,"x_max":0,"o":"m 1140 972 l 43 972 l 43 714 l 704 714 l 43 258 l 43 0 l 1140 0 l 1140 258 l 481 258 l 1140 714 z "},"Ź":{"ha":1185,"x_min":0,"x_max":0,"o":"m 861 1361 l 321 1250 l 321 1072 l 861 1183 z m 1140 972 l 43 972 l 43 714 l 704 714 l 43 258 l 43 0 l 1140 0 l 1140 258 l 481 258 l 1140 714 z "},"Ž":{"ha":1185,"x_min":0,"x_max":0,"o":"m 878 1186 l 878 1364 l 590 1253 l 303 1364 l 303 1186 l 590 1075 z m 1140 972 l 43 972 l 43 714 l 704 714 l 43 258 l 43 0 l 1140 0 l 1140 258 l 481 258 l 1140 714 z "},"Ż":{"ha":1185,"x_min":0,"x_max":0,"o":"m 743 1315 l 440 1315 l 440 1090 l 743 1090 z m 1140 972 l 43 972 l 43 714 l 704 714 l 43 258 l 43 0 l 1140 0 l 1140 258 l 481 258 l 1140 714 z "},"a":{"ha":1182,"x_min":0,"x_max":0,"o":"m 599 839 b 97 754 438 839 264 808 l 194 550 b 588 601 356 592 481 601 b 853 465 699 601 853 593 b 522 517 760 497 651 517 b 29 239 272 517 29 454 b 394 -14 29 57 185 -14 b 853 101 563 -14 715 19 l 853 0 l 1138 0 l 1138 413 b 599 839 1135 726 940 839 z m 853 263 b 479 185 749 219 599 185 b 315 257 374 185 315 192 b 568 347 315 326 401 347 b 853 313 692 347 783 333 z "},"á":{"ha":1182,"x_min":0,"x_max":0,"o":"m 878 1214 l 338 1103 l 338 925 l 878 1036 z m 599 839 b 97 754 438 839 264 808 l 194 550 b 588 601 356 592 481 601 b 853 465 699 601 853 593 b 522 517 760 497 651 517 b 29 239 272 517 29 454 b 394 -14 29 57 185 -14 b 853 101 563 -14 715 19 l 853 0 l 1138 0 l 1138 413 b 599 839 1135 726 940 839 z m 853 263 b 479 185 749 219 599 185 b 315 257 374 185 315 192 b 568 347 315 326 401 347 b 853 313 692 347 783 333 z "},"ă":{"ha":1182,"x_min":0,"x_max":0,"o":"m 608 907 b 924 1208 781 907 924 963 l 765 1208 b 608 1061 765 1103 711 1061 b 453 1208 506 1061 453 1103 l 293 1208 b 608 907 293 963 436 907 z m 599 839 b 97 754 438 839 264 808 l 194 550 b 588 601 356 592 481 601 b 853 465 699 601 853 593 b 522 517 760 497 651 517 b 29 239 272 517 29 454 b 394 -14 29 57 185 -14 b 853 101 563 -14 715 19 l 853 0 l 1138 0 l 1138 413 b 599 839 1135 726 940 839 z m 853 263 b 479 185 749 219 599 185 b 315 257 374 185 315 192 b 568 347 315 326 401 347 b 853 313 692 347 783 333 z "},"â":{"ha":1182,"x_min":0,"x_max":0,"o":"m 896 925 l 896 1103 l 608 1214 l 321 1103 l 321 925 l 608 1036 z m 599 839 b 97 754 438 839 264 808 l 194 550 b 588 601 356 592 481 601 b 853 465 699 601 853 593 b 522 517 760 497 651 517 b 29 239 272 517 29 454 b 394 -14 29 57 185 -14 b 853 101 563 -14 715 19 l 853 0 l 1138 0 l 1138 413 b 599 839 1135 726 940 839 z m 853 263 b 479 185 749 219 599 185 b 315 257 374 185 315 192 b 568 347 315 326 401 347 b 853 313 692 347 783 333 z "},"ä":{"ha":1182,"x_min":0,"x_max":0,"o":"m 558 1168 l 296 1168 l 296 943 l 558 943 z m 919 1168 l 657 1168 l 657 943 l 919 943 z m 599 839 b 97 754 438 839 264 808 l 194 550 b 588 601 356 592 481 601 b 853 465 699 601 853 593 b 522 517 760 497 651 517 b 29 239 272 517 29 454 b 394 -14 29 57 185 -14 b 853 101 563 -14 715 19 l 853 0 l 1138 0 l 1138 413 b 599 839 1135 726 940 839 z m 853 263 b 479 185 749 219 599 185 b 315 257 374 185 315 192 b 568 347 315 326 401 347 b 853 313 692 347 783 333 z "},"à":{"ha":1182,"x_min":0,"x_max":0,"o":"m 879 1103 l 339 1214 l 339 1036 l 879 925 z m 599 839 b 97 754 438 839 264 808 l 194 550 b 588 601 356 592 481 601 b 853 465 699 601 853 593 b 522 517 760 497 651 517 b 29 239 272 517 29 454 b 394 -14 29 57 185 -14 b 853 101 563 -14 715 19 l 853 0 l 1138 0 l 1138 413 b 599 839 1135 726 940 839 z m 853 263 b 479 185 749 219 599 185 b 315 257 374 185 315 192 b 568 347 315 326 401 347 b 853 313 692 347 783 333 z "},"ā":{"ha":1182,"x_min":0,"x_max":0,"o":"m 933 1117 l 282 1117 l 282 939 l 933 939 z m 599 839 b 97 754 438 839 264 808 l 194 550 b 588 601 356 592 481 601 b 853 465 699 601 853 593 b 522 517 760 497 651 517 b 29 239 272 517 29 454 b 394 -14 29 57 185 -14 b 853 101 563 -14 715 19 l 853 0 l 1138 0 l 1138 413 b 599 839 1135 726 940 839 z m 853 263 b 479 185 749 219 599 185 b 315 257 374 185 315 192 b 568 347 315 326 401 347 b 853 313 692 347 783 333 z "},"ą":{"ha":1182,"x_min":0,"x_max":0,"o":"m 965 -81 b 1026 0 965 -47 997 -24 l 1138 0 l 1138 413 b 599 839 1135 726 940 839 b 97 754 438 839 264 808 l 194 550 b 588 601 356 592 481 601 b 853 465 699 601 853 593 b 522 517 760 497 651 517 b 29 239 272 517 29 454 b 394 -14 29 57 185 -14 b 853 101 563 -14 715 19 l 853 0 l 885 0 b 778 -157 814 -46 778 -96 b 1178 -319 778 -293 918 -319 l 1178 -140 b 965 -81 1063 -140 965 -140 z m 853 263 b 479 185 749 219 599 185 b 315 257 374 185 315 192 b 568 347 315 326 401 347 b 853 313 692 347 783 333 z "},"å":{"ha":1182,"x_min":0,"x_max":0,"o":"m 608 917 b 900 1100 835 917 900 985 b 608 1283 900 1215 835 1283 b 317 1100 383 1283 317 1215 b 608 917 317 985 383 917 z m 608 1167 b 742 1100 688 1167 742 1156 b 608 1033 742 1044 688 1033 b 476 1100 531 1033 476 1044 b 608 1167 476 1156 531 1167 z m 599 839 b 97 754 438 839 264 808 l 194 550 b 588 601 356 592 481 601 b 853 465 699 601 853 593 b 522 517 760 497 651 517 b 29 239 272 517 29 454 b 394 -14 29 57 185 -14 b 853 101 563 -14 715 19 l 853 0 l 1138 0 l 1138 413 b 599 839 1135 726 940 839 z m 853 263 b 479 185 749 219 599 185 b 315 257 374 185 315 192 b 568 347 315 326 401 347 b 853 313 692 347 783 333 z "},"ã":{"ha":1182,"x_min":0,"x_max":0,"o":"m 506 1033 b 806 917 619 1033 654 917 b 1011 1208 958 917 1011 1061 l 786 1208 b 713 1106 786 1140 768 1106 b 413 1222 599 1106 564 1222 b 206 931 260 1222 206 1078 l 432 931 b 506 1033 432 999 450 1033 z m 599 839 b 97 754 438 839 264 808 l 194 550 b 588 601 356 592 481 601 b 853 465 699 601 853 593 b 522 517 760 497 651 517 b 29 239 272 517 29 454 b 394 -14 29 57 185 -14 b 853 101 563 -14 715 19 l 853 0 l 1138 0 l 1138 413 b 599 839 1135 726 940 839 z m 853 263 b 479 185 749 219 599 185 b 315 257 374 185 315 192 b 568 347 315 326 401 347 b 853 313 692 347 783 333 z "},"æ":{"ha":2039,"x_min":0,"x_max":0,"o":"m 1432 214 b 1171 357 1308 214 1199 246 l 2008 357 b 1446 839 2008 725 1774 839 b 1018 726 1267 839 1118 804 b 599 839 926 806 783 839 b 97 754 438 839 264 808 l 194 550 b 588 601 356 592 481 601 b 853 465 699 601 853 593 b 522 517 760 497 651 517 b 29 239 272 517 29 458 b 425 -14 29 57 189 -14 b 981 132 633 -14 843 33 b 1432 -14 1079 31 1240 -14 b 1994 303 1756 -14 1947 89 l 1713 303 b 1432 214 1650 235 1575 214 z m 1446 631 b 1706 515 1564 631 1665 611 l 1182 515 b 1446 631 1221 611 1321 631 z m 853 271 b 479 185 749 215 607 185 b 315 260 374 185 315 194 b 568 347 315 332 401 347 b 853 313 692 347 783 333 z "},"b":{"ha":1207,"x_min":0,"x_max":0,"o":"m 706 839 b 329 706 553 839 417 796 l 329 1111 l 43 1111 l 43 0 l 329 0 l 329 121 b 706 -14 417 29 553 -14 b 1176 413 944 -14 1176 89 b 706 839 1176 738 944 839 z m 610 224 b 329 413 431 224 329 271 b 610 601 329 554 431 601 b 892 413 790 601 892 554 b 610 224 892 271 790 224 z "},"c":{"ha":1188,"x_min":0,"x_max":0,"o":"m 29 413 b 596 -14 29 108 250 -14 b 1158 340 914 -14 1125 89 l 867 340 b 596 224 838 251 742 224 b 315 413 419 224 315 267 b 596 601 315 558 419 601 b 867 485 742 601 838 574 l 1158 485 b 596 839 1125 736 914 839 b 29 413 250 839 29 717 z "},"ć":{"ha":1188,"x_min":0,"x_max":0,"o":"m 325 1103 l 325 925 l 865 1036 l 865 1214 z m 29 413 b 596 -14 29 108 250 -14 b 1158 340 914 -14 1125 89 l 867 340 b 596 224 838 251 742 224 b 315 413 419 224 315 267 b 596 601 315 558 419 601 b 867 485 742 601 838 574 l 1158 485 b 596 839 1125 736 914 839 b 29 413 250 839 29 717 z "},"č":{"ha":1188,"x_min":0,"x_max":0,"o":"m 882 1039 l 882 1217 l 594 1106 l 307 1217 l 307 1039 l 594 928 z m 596 224 b 315 413 419 224 315 267 b 596 601 315 558 419 601 b 867 485 742 601 838 574 l 1158 485 b 596 839 1125 736 914 839 b 29 413 250 839 29 717 b 596 -14 29 108 250 -14 b 1158 340 914 -14 1125 89 l 867 340 b 596 224 838 251 742 224 z "},"ç":{"ha":1188,"x_min":0,"x_max":0,"o":"m 596 224 b 315 413 419 224 315 267 b 596 601 315 558 419 601 b 867 485 742 601 838 574 l 1158 485 b 596 839 1125 736 914 839 b 29 413 250 839 29 717 b 508 -11 29 135 214 8 l 492 -49 l 574 -129 b 718 -149 682 -104 718 -115 b 465 -197 718 -197 647 -224 l 465 -319 b 904 -161 679 -346 904 -319 b 660 -65 904 -28 744 -39 l 681 -11 b 1158 340 951 6 1128 113 l 867 340 b 596 224 838 251 742 224 z "},"ċ":{"ha":1188,"x_min":0,"x_max":0,"o":"m 444 1168 l 444 943 l 747 943 l 747 1168 z m 29 413 b 596 -14 29 108 250 -14 b 1158 340 914 -14 1125 89 l 867 340 b 596 224 838 251 742 224 b 315 413 419 224 315 267 b 596 601 315 558 419 601 b 867 485 742 601 838 574 l 1158 485 b 596 839 1125 736 914 839 b 29 413 250 839 29 717 z "},"d":{"ha":1207,"x_min":0,"x_max":0,"o":"m 878 1111 l 878 706 b 501 839 790 796 654 839 b 31 413 263 839 31 738 b 501 -14 31 89 263 -14 b 878 121 654 -14 790 29 l 878 0 l 1164 0 l 1164 1111 z m 597 224 b 315 413 417 224 315 271 b 597 601 315 554 417 601 b 878 413 776 601 878 554 b 597 224 878 271 776 224 z "},"ð":{"ha":1286,"x_min":0,"x_max":0,"o":"m 990 1071 l 1190 1167 l 1075 1303 l 821 1182 b 349 1306 682 1254 519 1296 l 313 1064 b 508 1033 381 1058 446 1049 l 315 942 l 431 806 l 725 946 b 953 607 849 871 933 760 b 501 778 842 701 694 778 b 43 386 178 778 43 619 b 588 -14 43 97 256 -14 b 1242 536 919 -14 1242 135 b 990 1071 1242 761 1144 942 z m 581 224 b 329 386 401 224 329 278 b 542 540 329 503 411 540 b 913 364 647 540 796 494 b 581 224 850 268 731 224 z "},"ď":{"ha":1563,"x_min":0,"x_max":0,"o":"m 878 706 b 501 839 790 796 654 839 b 31 413 263 839 31 738 b 501 -14 31 89 263 -14 b 878 121 654 -14 790 29 l 878 0 l 1164 0 l 1164 1111 l 878 1111 z m 1232 1111 l 1232 893 l 1335 893 l 1253 603 l 1383 603 l 1518 893 l 1518 1111 z m 597 224 b 315 413 417 224 315 271 b 597 601 315 554 417 601 b 878 413 776 601 878 554 b 597 224 878 271 776 224 z "},"đ":{"ha":1276,"x_min":0,"x_max":0,"o":"m 1232 1047 l 1164 1047 l 1164 1111 l 878 1111 l 878 1047 l 565 1047 l 565 869 l 878 869 l 878 706 b 501 839 790 796 654 839 b 31 413 263 839 31 738 b 501 -14 31 89 263 -14 b 878 121 654 -14 790 29 l 878 0 l 1164 0 l 1164 869 l 1232 869 z m 597 224 b 315 413 417 224 315 271 b 597 601 315 554 417 601 b 878 413 776 601 878 554 b 597 224 878 271 776 224 z "},"e":{"ha":1188,"x_min":0,"x_max":0,"o":"m 582 214 b 321 357 458 214 349 246 l 1158 357 b 596 839 1158 725 924 839 b 29 413 260 839 29 717 b 582 -14 29 108 264 -14 b 1144 303 906 -14 1097 89 l 863 303 b 582 214 800 235 725 214 z m 596 631 b 856 515 714 631 815 611 l 332 515 b 596 631 371 611 471 631 z "},"é":{"ha":1188,"x_min":0,"x_max":0,"o":"m 865 1214 l 325 1103 l 325 925 l 865 1036 z m 582 214 b 321 357 458 214 349 246 l 1158 357 b 596 839 1158 725 924 839 b 29 413 260 839 29 717 b 582 -14 29 108 264 -14 b 1144 303 906 -14 1097 89 l 863 303 b 582 214 800 235 725 214 z m 596 631 b 856 515 714 631 815 611 l 332 515 b 596 631 371 611 471 631 z "},"ě":{"ha":1188,"x_min":0,"x_max":0,"o":"m 882 1039 l 882 1217 l 594 1106 l 307 1217 l 307 1039 l 594 928 z m 582 214 b 321 357 458 214 349 246 l 1158 357 b 596 839 1158 725 924 839 b 29 413 260 839 29 717 b 582 -14 29 108 264 -14 b 1144 303 906 -14 1097 89 l 863 303 b 582 214 800 235 725 214 z m 596 631 b 856 515 714 631 815 611 l 332 515 b 596 631 371 611 471 631 z "},"ê":{"ha":1188,"x_min":0,"x_max":0,"o":"m 883 925 l 883 1103 l 596 1214 l 308 1103 l 308 925 l 596 1036 z m 582 214 b 321 357 458 214 349 246 l 1158 357 b 596 839 1158 725 924 839 b 29 413 260 839 29 717 b 582 -14 29 108 264 -14 b 1144 303 906 -14 1097 89 l 863 303 b 582 214 800 235 725 214 z m 596 631 b 856 515 714 631 815 611 l 332 515 b 596 631 371 611 471 631 z "},"ë":{"ha":1188,"x_min":0,"x_max":0,"o":"m 546 1168 l 283 1168 l 283 943 l 546 943 z m 907 1168 l 644 1168 l 644 943 l 907 943 z m 582 214 b 321 357 458 214 349 246 l 1158 357 b 596 839 1158 725 924 839 b 29 413 260 839 29 717 b 582 -14 29 108 264 -14 b 1144 303 906 -14 1097 89 l 863 303 b 582 214 800 235 725 214 z m 596 631 b 856 515 714 631 815 611 l 332 515 b 596 631 371 611 471 631 z "},"ė":{"ha":1188,"x_min":0,"x_max":0,"o":"m 747 1168 l 444 1168 l 444 943 l 747 943 z m 582 214 b 321 357 458 214 349 246 l 1158 357 b 596 839 1158 725 924 839 b 29 413 260 839 29 717 b 582 -14 29 108 264 -14 b 1144 303 906 -14 1097 89 l 863 303 b 582 214 800 235 725 214 z m 596 631 b 856 515 714 631 815 611 l 332 515 b 596 631 371 611 471 631 z "},"è":{"ha":1188,"x_min":0,"x_max":0,"o":"m 867 1103 l 326 1214 l 326 1036 l 867 925 z m 582 214 b 321 357 458 214 349 246 l 1158 357 b 596 839 1158 725 924 839 b 29 413 260 839 29 717 b 582 -14 29 108 264 -14 b 1144 303 906 -14 1097 89 l 863 303 b 582 214 800 235 725 214 z m 596 631 b 856 515 714 631 815 611 l 332 515 b 596 631 371 611 471 631 z "},"ē":{"ha":1188,"x_min":0,"x_max":0,"o":"m 921 1117 l 269 1117 l 269 939 l 921 939 z m 582 214 b 321 357 458 214 349 246 l 1158 357 b 596 839 1158 725 924 839 b 29 413 260 839 29 717 b 582 -14 29 108 264 -14 b 1144 303 906 -14 1097 89 l 863 303 b 582 214 800 235 725 214 z m 596 631 b 856 515 714 631 815 611 l 332 515 b 596 631 371 611 471 631 z "},"ę":{"ha":1188,"x_min":0,"x_max":0,"o":"m 582 214 b 321 357 458 214 349 246 l 1158 357 b 596 839 1158 725 924 839 b 29 413 260 839 29 717 b 582 -14 29 108 264 -14 l 604 -14 b 517 -157 546 -56 517 -101 b 917 -319 517 -293 657 -319 l 917 -140 b 704 -81 801 -140 704 -140 b 764 -1 704 -47 735 -24 b 1144 303 978 33 1107 133 l 863 303 b 582 214 800 235 725 214 z m 596 631 b 856 515 714 631 815 611 l 332 515 b 596 631 371 611 471 631 z "},"f":{"ha":860,"x_min":0,"x_max":0,"o":"m 658 929 b 829 922 719 929 775 926 l 829 1111 b 583 1125 708 1125 665 1125 b 222 879 322 1125 222 1046 l 222 825 l 29 825 l 29 588 l 222 588 l 222 0 l 507 0 l 507 588 l 829 588 l 829 825 l 508 825 b 658 929 514 903 550 929 z "},"g":{"ha":1207,"x_min":0,"x_max":0,"o":"m 878 825 l 878 696 b 492 839 801 786 672 839 b 29 432 222 839 29 717 b 492 26 29 149 222 26 b 878 169 672 26 800 79 b 576 -110 872 -42 782 -110 b 117 -51 396 -110 213 -69 l 117 -282 b 635 -347 196 -303 397 -347 b 1163 119 932 -347 1163 -214 l 1163 825 z m 596 264 b 315 432 396 264 315 310 b 596 601 315 554 396 601 b 878 432 797 601 878 554 b 596 264 878 310 797 264 z "},"ğ":{"ha":1207,"x_min":0,"x_max":0,"o":"m 596 907 b 911 1208 768 907 911 963 l 753 1208 b 596 1061 753 1103 699 1061 b 440 1208 493 1061 440 1103 l 281 1208 b 596 907 281 963 424 907 z m 878 825 l 878 696 b 492 839 801 786 672 839 b 29 432 222 839 29 717 b 492 26 29 149 222 26 b 878 169 672 26 800 79 b 576 -110 872 -42 782 -110 b 117 -51 396 -110 213 -69 l 117 -282 b 635 -347 196 -303 397 -347 b 1163 119 932 -347 1163 -214 l 1163 825 z m 596 264 b 315 432 396 264 315 310 b 596 601 315 554 396 601 b 878 432 797 601 878 554 b 596 264 878 310 797 264 z "},"ģ":{"ha":1207,"x_min":0,"x_max":0,"o":"m 719 1135 l 632 1135 l 719 1288 l 600 1288 l 472 1135 l 472 976 l 719 976 z m 878 825 l 878 696 b 492 839 801 786 672 839 b 29 432 222 839 29 717 b 492 26 29 149 222 26 b 878 169 672 26 800 79 b 576 -110 872 -42 782 -110 b 117 -51 396 -110 213 -69 l 117 -282 b 635 -347 196 -303 397 -347 b 1163 119 932 -347 1163 -214 l 1163 825 z m 596 264 b 315 432 396 264 315 310 b 596 601 315 554 396 601 b 878 432 797 601 878 554 b 596 264 878 310 797 264 z "},"ġ":{"ha":1207,"x_min":0,"x_max":0,"o":"m 747 1168 l 444 1168 l 444 943 l 747 943 z m 878 825 l 878 696 b 492 839 801 786 672 839 b 29 432 222 839 29 717 b 492 26 29 149 222 26 b 878 169 672 26 800 79 b 576 -110 872 -42 782 -110 b 117 -51 396 -110 213 -69 l 117 -282 b 635 -347 196 -303 397 -347 b 1163 119 932 -347 1163 -214 l 1163 825 z m 596 264 b 315 432 396 264 315 310 b 596 601 315 554 396 601 b 878 432 797 601 878 554 b 596 264 878 310 797 264 z "},"h":{"ha":1225,"x_min":0,"x_max":0,"o":"m 768 839 b 329 699 582 839 438 779 l 329 1111 l 43 1111 l 43 0 l 329 0 l 329 454 b 665 592 399 528 536 592 b 894 357 839 592 894 515 l 894 0 l 1179 0 l 1181 469 b 768 839 1179 771 971 839 z "},"ħ":{"ha":1292,"x_min":0,"x_max":0,"o":"m 836 839 b 397 699 650 839 506 779 l 397 874 l 710 874 l 710 1051 l 397 1051 l 397 1111 l 111 1111 l 111 1051 l 43 1051 l 43 874 l 111 874 l 111 0 l 397 0 l 397 454 b 733 592 467 528 604 592 b 963 357 907 592 963 515 l 963 0 l 1247 0 l 1249 469 b 836 839 1247 771 1039 839 z "},"i":{"ha":374,"x_min":0,"x_max":0,"o":"m 43 1111 l 43 897 l 329 897 l 329 1111 z m 43 825 l 43 0 l 329 0 l 329 825 z "},"ı":{"ha":374,"x_min":0,"x_max":0,"o":"m 43 825 l 43 0 l 329 0 l 329 825 z "},"í":{"ha":374,"x_min":0,"x_max":0,"o":"m -85 1103 l -85 925 l 456 1036 l 456 1214 z m 43 825 l 43 0 l 329 0 l 329 825 z "},"î":{"ha":374,"x_min":0,"x_max":0,"o":"m 186 1214 l -101 1103 l -101 925 l 186 1036 l 474 925 l 474 1103 z m 43 0 l 329 0 l 329 825 l 43 825 z "},"ï":{"ha":374,"x_min":0,"x_max":0,"o":"m -126 1168 l -126 943 l 136 943 l 136 1168 z m 235 1168 l 235 943 l 497 943 l 497 1168 z m 43 825 l 43 0 l 329 0 l 329 825 z "},"ì":{"ha":374,"x_min":0,"x_max":0,"o":"m 457 1103 l -83 1214 l -83 1036 l 457 925 z m 43 825 l 43 0 l 329 0 l 329 825 z "},"ī":{"ha":374,"x_min":0,"x_max":0,"o":"m -140 1117 l -140 939 l 511 939 l 511 1117 z m 43 825 l 43 0 l 329 0 l 329 825 z "},"į":{"ha":374,"x_min":0,"x_max":0,"o":"m 338 1168 l 35 1168 l 35 943 l 338 943 z m 221 -81 b 282 0 221 -47 253 -24 l 329 0 l 329 825 l 43 825 l 43 0 l 140 0 b 33 -157 69 -46 33 -96 b 433 -319 33 -293 174 -319 l 433 -140 b 221 -81 318 -140 221 -140 z "},"j":{"ha":640,"x_min":0,"x_max":0,"o":"m 311 1111 l 311 897 l 596 897 l 596 1111 z m 596 825 l 311 825 l 311 50 b 158 -110 311 -83 281 -110 b -12 -96 97 -110 56 -104 l -12 -326 b 233 -347 67 -340 151 -347 b 596 38 503 -347 596 -212 z "},"k":{"ha":1313,"x_min":0,"x_max":0,"o":"m 1282 825 l 824 825 l 329 493 l 329 1111 l 43 1111 l 43 0 l 329 0 l 329 181 l 567 335 l 901 0 l 1282 0 l 790 485 z "},"ķ":{"ha":1313,"x_min":0,"x_max":0,"o":"m 1282 825 l 824 825 l 329 493 l 329 1111 l 43 1111 l 43 0 l 329 0 l 329 181 l 567 335 l 901 0 l 1282 0 l 790 485 z m 469 -310 l 557 -310 l 469 -462 l 589 -462 l 717 -310 l 717 -151 l 469 -151 z "},"l":{"ha":374,"x_min":0,"x_max":0,"o":"m 43 1111 l 43 0 l 329 0 l 329 1111 z "},"ĺ":{"ha":374,"x_min":0,"x_max":0,"o":"m -85 1389 l -85 1211 l 456 1322 l 456 1500 z m 43 1111 l 43 0 l 329 0 l 329 1111 z "},"ľ":{"ha":374,"x_min":0,"x_max":0,"o":"m 185 1392 l -103 1503 l -103 1325 l 185 1214 l 472 1325 l 472 1503 z m 43 0 l 329 0 l 329 1111 l 43 1111 z "},"ļ":{"ha":374,"x_min":0,"x_max":0,"o":"m 43 1111 l 43 0 l 329 0 l 329 1111 z m 63 -151 l 63 -310 l 150 -310 l 63 -462 l 182 -462 l 310 -310 l 310 -151 z "},"ł":{"ha":813,"x_min":0,"x_max":0,"o":"m 768 849 l 540 768 l 540 1111 l 254 1111 l 254 665 l 43 590 l 43 379 l 254 454 l 254 0 l 540 0 l 540 557 l 768 638 z "},"m":{"ha":1860,"x_min":0,"x_max":0,"o":"m 1467 839 b 1032 688 1265 839 1128 769 b 729 839 968 806 844 839 b 329 689 526 839 411 760 l 329 825 l 43 825 l 43 0 l 329 0 l 329 465 b 613 592 399 538 501 592 b 790 357 758 592 790 515 l 790 0 l 1076 0 l 1078 475 b 1350 592 1146 543 1244 592 b 1529 357 1496 592 1529 515 l 1529 0 l 1815 0 l 1815 481 b 1467 839 1815 771 1632 839 z "},"n":{"ha":1225,"x_min":0,"x_max":0,"o":"m 768 839 b 329 699 582 839 438 779 l 329 825 l 43 825 l 43 0 l 329 0 l 329 454 b 665 592 399 528 536 592 b 894 357 839 592 894 515 l 894 0 l 1179 0 l 1181 469 b 768 839 1179 771 971 839 z "},"ń":{"ha":1225,"x_min":0,"x_max":0,"o":"m 936 1214 l 396 1103 l 396 925 l 936 1036 z m 768 839 b 329 699 582 839 438 779 l 329 825 l 43 825 l 43 0 l 329 0 l 329 454 b 665 592 399 528 536 592 b 894 357 839 592 894 515 l 894 0 l 1179 0 l 1181 469 b 768 839 1179 771 971 839 z "},"ň":{"ha":1225,"x_min":0,"x_max":0,"o":"m 953 1039 l 953 1217 l 665 1106 l 378 1217 l 378 1039 l 665 928 z m 768 839 b 329 699 582 839 438 779 l 329 825 l 43 825 l 43 0 l 329 0 l 329 454 b 665 592 399 528 536 592 b 894 357 839 592 894 515 l 894 0 l 1179 0 l 1181 469 b 768 839 1179 771 971 839 z "},"ņ":{"ha":1225,"x_min":0,"x_max":0,"o":"m 768 839 b 329 699 582 839 438 779 l 329 825 l 43 825 l 43 0 l 329 0 l 329 454 b 665 592 399 528 536 592 b 894 357 839 592 894 515 l 894 0 l 1179 0 l 1181 469 b 768 839 1179 771 971 839 z m 488 -310 l 575 -310 l 488 -462 l 607 -462 l 735 -310 l 735 -151 l 488 -151 z "},"ŋ":{"ha":1225,"x_min":0,"x_max":0,"o":"m 768 839 b 329 699 582 839 438 779 l 329 825 l 43 825 l 43 0 l 329 0 l 329 454 b 665 592 399 528 536 592 b 894 357 839 592 894 515 l 894 0 b 704 -133 894 -107 843 -133 b 547 -119 657 -133 615 -128 l 547 -346 b 793 -367 626 -360 711 -367 b 1179 0 1065 -367 1179 -240 l 1181 469 b 768 839 1179 771 971 839 z "},"ñ":{"ha":1225,"x_min":0,"x_max":0,"o":"m 564 1033 b 864 917 678 1033 713 917 b 1069 1208 1017 917 1069 1061 l 844 1208 b 771 1106 844 1140 826 1106 b 471 1222 657 1106 622 1222 b 264 931 318 1222 264 1078 l 490 931 b 564 1033 490 999 508 1033 z m 768 839 b 329 699 582 839 438 779 l 329 825 l 43 825 l 43 0 l 329 0 l 329 454 b 665 592 399 528 536 592 b 894 357 839 592 894 515 l 894 0 l 1179 0 l 1181 469 b 768 839 1179 771 971 839 z "},"o":{"ha":1193,"x_min":0,"x_max":0,"o":"m 596 -14 b 1163 413 943 -14 1163 108 b 596 839 1163 717 943 839 b 29 413 250 839 29 717 b 596 -14 29 108 250 -14 z m 596 224 b 315 413 413 224 315 267 b 596 601 315 558 413 601 b 878 413 781 601 878 558 b 596 224 878 267 781 224 z "},"ó":{"ha":1193,"x_min":0,"x_max":0,"o":"m 325 1103 l 325 925 l 865 1036 l 865 1214 z m 596 -14 b 1163 413 943 -14 1163 108 b 596 839 1163 717 943 839 b 29 413 250 839 29 717 b 596 -14 29 108 250 -14 z m 596 224 b 315 413 413 224 315 267 b 596 601 315 558 413 601 b 878 413 781 601 878 558 b 596 224 878 267 781 224 z "},"ô":{"ha":1193,"x_min":0,"x_max":0,"o":"m 883 925 l 883 1103 l 596 1214 l 308 1103 l 308 925 l 596 1036 z m 596 839 b 29 413 250 839 29 717 b 596 -14 29 108 250 -14 b 1163 413 943 -14 1163 108 b 596 839 1163 717 943 839 z m 596 224 b 315 413 413 224 315 267 b 596 601 315 558 413 601 b 878 413 781 601 878 558 b 596 224 878 267 781 224 z "},"ö":{"ha":1193,"x_min":0,"x_max":0,"o":"m 283 1168 l 283 943 l 546 943 l 546 1168 z m 644 1168 l 644 943 l 907 943 l 907 1168 z m 596 -14 b 1163 413 943 -14 1163 108 b 596 839 1163 717 943 839 b 29 413 250 839 29 717 b 596 -14 29 108 250 -14 z m 596 224 b 315 413 413 224 315 267 b 596 601 315 558 413 601 b 878 413 781 601 878 558 b 596 224 878 267 781 224 z "},"ò":{"ha":1193,"x_min":0,"x_max":0,"o":"m 867 1103 l 326 1214 l 326 1036 l 867 925 z m 596 -14 b 1163 413 943 -14 1163 108 b 596 839 1163 717 943 839 b 29 413 250 839 29 717 b 596 -14 29 108 250 -14 z m 596 224 b 315 413 413 224 315 267 b 596 601 315 558 413 601 b 878 413 781 601 878 558 b 596 224 878 267 781 224 z "},"ő":{"ha":1193,"x_min":0,"x_max":0,"o":"m 267 1119 l 267 936 l 554 1047 l 554 1231 z m 638 1119 l 638 936 l 925 1047 l 925 1231 z m 596 -14 b 1163 413 943 -14 1163 108 b 596 839 1163 717 943 839 b 29 413 250 839 29 717 b 596 -14 29 108 250 -14 z m 596 224 b 315 413 413 224 315 267 b 596 601 315 558 413 601 b 878 413 781 601 878 558 b 596 224 878 267 781 224 z "},"ō":{"ha":1193,"x_min":0,"x_max":0,"o":"m 269 1117 l 269 939 l 921 939 l 921 1117 z m 596 -14 b 1163 413 943 -14 1163 108 b 596 839 1163 717 943 839 b 29 413 250 839 29 717 b 596 -14 29 108 250 -14 z m 596 224 b 315 413 413 224 315 267 b 596 601 315 558 413 601 b 878 413 781 601 878 558 b 596 224 878 267 781 224 z "},"ø":{"ha":1193,"x_min":0,"x_max":0,"o":"m 826 817 l 886 1017 l 667 1017 l 614 839 l 596 839 b 29 413 250 839 29 717 b 365 8 29 183 156 57 l 306 -192 l 525 -192 l 578 -14 l 596 -14 b 1163 413 943 -14 1163 108 b 826 817 1163 642 1038 768 z m 315 413 b 542 600 315 543 393 592 l 435 242 b 315 413 357 267 315 318 z m 650 225 l 757 583 b 878 413 836 558 878 507 b 650 225 878 282 800 233 z "},"õ":{"ha":1193,"x_min":0,"x_max":0,"o":"m 193 931 l 419 931 b 493 1033 419 999 438 1033 b 793 917 607 1033 642 917 b 999 1208 946 917 999 1061 l 774 1208 b 700 1106 774 1140 756 1106 b 400 1222 586 1106 551 1222 b 193 931 247 1222 193 1078 z m 596 -14 b 1163 413 943 -14 1163 108 b 596 839 1163 717 943 839 b 29 413 250 839 29 717 b 596 -14 29 108 250 -14 z m 596 224 b 315 413 413 224 315 267 b 596 601 315 558 413 601 b 878 413 781 601 878 558 b 596 224 878 267 781 224 z "},"œ":{"ha":2085,"x_min":0,"x_max":0,"o":"m 1479 214 b 1218 357 1356 214 1246 246 l 2056 357 b 1493 839 2056 725 1821 839 b 1046 710 1303 839 1146 800 b 596 839 949 800 793 839 b 29 413 250 839 29 717 b 596 -14 29 108 250 -14 b 1046 115 793 -14 949 25 b 1479 -14 1146 25 1299 -14 b 2042 303 1803 -14 1994 89 l 1760 303 b 1479 214 1697 235 1622 214 z m 1493 631 b 1753 515 1611 631 1713 611 l 1229 515 b 1493 631 1268 611 1368 631 z m 596 224 b 315 413 413 224 315 267 b 596 601 315 558 413 601 b 878 413 781 601 878 558 b 596 224 878 267 781 224 z "},"p":{"ha":1207,"x_min":0,"x_max":0,"o":"m 706 839 b 329 704 553 839 418 796 l 329 825 l 44 825 l 44 -347 l 329 -347 l 329 121 b 706 -14 418 29 553 -14 b 1178 413 944 -14 1178 89 b 706 839 1178 738 944 839 z m 611 224 b 329 413 431 224 329 271 b 611 601 329 554 431 601 b 892 413 790 601 892 554 b 611 224 892 271 790 224 z "},"þ":{"ha":1217,"x_min":0,"x_max":0,"o":"m 721 839 b 329 690 553 839 414 789 l 329 1111 l 43 1111 l 43 -237 l 329 -237 l 329 135 b 721 -14 414 36 553 -14 b 1176 413 958 -14 1176 81 b 721 839 1176 744 958 839 z m 610 224 b 329 413 422 224 329 275 b 610 601 329 551 422 601 b 892 413 799 601 892 551 b 610 224 892 275 799 224 z "},"q":{"ha":1207,"x_min":0,"x_max":0,"o":"m 878 825 l 878 704 b 501 839 789 796 654 839 b 29 413 263 839 29 738 b 501 -14 29 89 263 -14 b 878 121 654 -14 789 29 l 878 -347 l 1163 -347 l 1163 825 z m 596 224 b 315 413 417 224 315 271 b 596 601 315 554 417 601 b 878 413 776 601 878 554 b 596 224 878 271 776 224 z "},"r":{"ha":951,"x_min":0,"x_max":0,"o":"m 700 839 b 329 686 557 839 426 796 l 329 825 l 43 825 l 43 0 l 329 0 l 329 469 b 717 601 449 579 590 601 b 921 574 781 601 843 593 l 921 811 b 700 839 865 825 797 839 z "},"ŕ":{"ha":951,"x_min":0,"x_max":0,"o":"m 751 1214 l 211 1103 l 211 925 l 751 1036 z m 700 839 b 329 686 557 839 426 796 l 329 825 l 43 825 l 43 0 l 329 0 l 329 469 b 717 601 449 579 590 601 b 921 574 781 601 843 593 l 921 811 b 700 839 865 825 797 839 z "},"ř":{"ha":951,"x_min":0,"x_max":0,"o":"m 768 1039 l 768 1217 l 481 1106 l 193 1217 l 193 1039 l 481 928 z m 700 839 b 329 686 557 839 426 796 l 329 825 l 43 825 l 43 0 l 329 0 l 329 469 b 717 601 449 579 590 601 b 921 574 781 601 843 593 l 921 811 b 700 839 865 825 797 839 z "},"ŗ":{"ha":951,"x_min":0,"x_max":0,"o":"m 700 839 b 329 686 557 839 426 796 l 329 825 l 43 825 l 43 0 l 329 0 l 329 469 b 717 601 449 579 590 601 b 921 574 781 601 843 593 l 921 811 b 700 839 865 825 797 839 z m 63 -310 l 150 -310 l 63 -462 l 182 -462 l 310 -310 l 310 -151 l 63 -151 z "},"s":{"ha":1190,"x_min":0,"x_max":0,"o":"m 29 288 b 631 -14 29 26 315 -14 b 1160 268 946 -14 1160 26 b 622 521 1160 486 947 501 b 338 583 376 538 338 540 b 592 631 338 624 394 631 b 847 567 775 631 847 624 l 1132 567 b 606 839 1132 799 914 839 b 51 574 304 839 51 799 b 594 322 51 369 224 340 b 875 257 839 308 875 308 b 617 194 875 207 838 194 b 315 288 383 194 315 221 z "},"ś":{"ha":1190,"x_min":0,"x_max":0,"o":"m 324 1103 l 324 925 l 864 1036 l 864 1214 z m 29 288 b 631 -14 29 26 315 -14 b 1160 268 946 -14 1160 26 b 622 521 1160 486 947 501 b 338 583 376 538 338 540 b 592 631 338 624 394 631 b 847 567 775 631 847 624 l 1132 567 b 606 839 1132 799 914 839 b 51 574 304 839 51 799 b 594 322 51 369 224 340 b 875 257 839 308 875 308 b 617 194 875 207 838 194 b 315 288 383 194 315 221 z "},"š":{"ha":1190,"x_min":0,"x_max":0,"o":"m 881 1039 l 881 1217 l 593 1106 l 306 1217 l 306 1039 l 593 928 z m 622 521 b 338 583 376 538 338 540 b 592 631 338 624 394 631 b 847 567 775 631 847 624 l 1132 567 b 606 839 1132 799 914 839 b 51 574 304 839 51 799 b 594 322 51 369 224 340 b 875 257 839 308 875 308 b 617 194 875 207 838 194 b 315 288 383 194 315 221 l 29 288 b 631 -14 29 26 315 -14 b 1160 268 946 -14 1160 26 b 622 521 1160 486 947 501 z "},"ş":{"ha":1190,"x_min":0,"x_max":0,"o":"m 1160 268 b 622 521 1160 486 947 501 b 338 583 376 538 338 540 b 592 631 338 624 394 631 b 847 567 775 631 847 624 l 1132 567 b 606 839 1132 799 914 839 b 51 574 304 839 51 799 b 594 322 51 369 224 340 b 875 257 839 308 875 308 b 617 194 875 207 838 194 b 315 288 383 194 315 221 l 29 288 b 507 -11 29 61 244 0 l 490 -49 l 572 -129 b 717 -149 681 -104 717 -115 b 464 -197 717 -197 646 -224 l 464 -319 b 903 -161 678 -346 903 -319 b 658 -65 903 -28 743 -39 l 678 -14 b 1160 268 967 -10 1160 39 z "},"ș":{"ha":1190,"x_min":0,"x_max":0,"o":"m 29 288 b 631 -14 29 26 315 -14 b 1160 268 946 -14 1160 26 b 622 521 1160 486 947 501 b 338 583 376 538 338 540 b 592 631 338 624 394 631 b 847 567 775 631 847 624 l 1132 567 b 606 839 1132 799 914 839 b 51 574 304 839 51 799 b 594 322 51 369 224 340 b 875 257 839 308 875 308 b 617 194 875 207 838 194 b 315 288 383 194 315 221 z m 471 -151 l 471 -310 l 558 -310 l 471 -462 l 590 -462 l 718 -310 l 718 -151 z "},"ß":{"ha":1176,"x_min":0,"x_max":0,"o":"m 913 549 b 993 722 963 593 993 651 b 564 986 993 922 822 986 b 43 596 226 986 43 914 l 43 0 l 329 0 l 329 596 b 553 749 329 732 426 749 b 708 663 647 749 708 726 b 483 575 708 585 653 575 l 483 417 b 861 328 803 417 861 404 b 483 238 861 250 803 238 l 483 0 b 1146 278 939 0 1146 19 b 913 549 1146 442 1056 515 z "},"t":{"ha":901,"x_min":0,"x_max":0,"o":"m 871 588 l 871 825 l 507 825 l 507 1056 l 222 981 l 222 825 l 29 825 l 29 588 l 222 588 l 222 246 b 588 -14 222 65 353 -14 b 871 7 697 -14 792 -7 l 871 238 b 658 224 775 224 733 224 b 507 383 538 224 507 264 l 507 588 z "},"ŧ":{"ha":901,"x_min":0,"x_max":0,"o":"m 871 588 l 871 825 l 507 825 l 507 1056 l 222 981 l 222 825 l 29 825 l 29 588 l 222 588 l 222 506 l 104 506 l 104 328 l 222 328 l 222 246 b 588 -14 222 65 353 -14 b 871 7 697 -14 792 -7 l 871 238 b 658 224 775 224 733 224 b 510 328 558 224 521 251 l 771 328 l 771 506 l 507 506 l 507 588 z "},"ť":{"ha":901,"x_min":0,"x_max":0,"o":"m 650 1242 l 650 1419 l 363 1308 l 75 1419 l 75 1242 l 363 1131 z m 871 588 l 871 825 l 507 825 l 507 1056 l 222 981 l 222 825 l 29 825 l 29 588 l 222 588 l 222 246 b 588 -14 222 65 353 -14 b 871 7 697 -14 792 -7 l 871 238 b 658 224 775 224 733 224 b 507 383 538 224 507 264 l 507 588 z "},"ţ":{"ha":901,"x_min":0,"x_max":0,"o":"m 871 588 l 871 825 l 507 825 l 507 1056 l 222 981 l 222 825 l 29 825 l 29 588 l 222 588 l 222 246 b 476 -7 222 96 313 17 l 457 -49 l 539 -129 b 683 -149 647 -104 683 -115 b 431 -197 683 -197 613 -224 l 431 -319 b 869 -161 644 -346 869 -319 b 625 -65 869 -28 710 -39 l 644 -14 b 871 7 731 -11 806 -4 l 871 238 b 658 224 775 224 733 224 b 507 383 538 224 507 264 l 507 588 z "},"ț":{"ha":901,"x_min":0,"x_max":0,"o":"m 871 588 l 871 825 l 507 825 l 507 1056 l 222 981 l 222 825 l 29 825 l 29 588 l 222 588 l 222 246 b 588 -14 222 65 353 -14 b 871 7 697 -14 792 -7 l 871 238 b 658 224 775 224 733 224 b 507 383 538 224 507 264 l 507 588 z m 438 -310 l 525 -310 l 438 -462 l 557 -462 l 685 -310 l 685 -151 l 438 -151 z "},"u":{"ha":1225,"x_min":0,"x_max":0,"o":"m 896 825 l 896 371 b 560 233 826 297 689 233 b 331 468 386 233 331 310 l 331 825 l 46 825 l 44 356 b 457 -14 46 54 254 -14 b 896 126 643 -14 788 46 l 896 0 l 1182 0 l 1182 825 z "},"ú":{"ha":1225,"x_min":0,"x_max":0,"o":"m 881 1214 l 340 1103 l 340 925 l 881 1036 z m 896 825 l 896 371 b 560 233 826 297 689 233 b 331 468 386 233 331 310 l 331 825 l 46 825 l 44 356 b 457 -14 46 54 254 -14 b 896 126 643 -14 788 46 l 896 0 l 1182 0 l 1182 825 z "},"û":{"ha":1225,"x_min":0,"x_max":0,"o":"m 899 925 l 899 1103 l 611 1214 l 324 1103 l 324 925 l 611 1036 z m 896 825 l 896 371 b 560 233 826 297 689 233 b 331 468 386 233 331 310 l 331 825 l 46 825 l 44 356 b 457 -14 46 54 254 -14 b 896 126 643 -14 788 46 l 896 0 l 1182 0 l 1182 825 z "},"ü":{"ha":1225,"x_min":0,"x_max":0,"o":"m 561 1168 l 299 1168 l 299 943 l 561 943 z m 922 1168 l 660 1168 l 660 943 l 922 943 z m 896 825 l 896 371 b 560 233 826 297 689 233 b 331 468 386 233 331 310 l 331 825 l 46 825 l 44 356 b 457 -14 46 54 254 -14 b 896 126 643 -14 788 46 l 896 0 l 1182 0 l 1182 825 z "},"ù":{"ha":1225,"x_min":0,"x_max":0,"o":"m 882 1103 l 342 1214 l 342 1036 l 882 925 z m 896 825 l 896 371 b 560 233 826 297 689 233 b 331 468 386 233 331 310 l 331 825 l 46 825 l 44 356 b 457 -14 46 54 254 -14 b 896 126 643 -14 788 46 l 896 0 l 1182 0 l 1182 825 z "},"ű":{"ha":1225,"x_min":0,"x_max":0,"o":"m 569 1231 l 282 1119 l 282 936 l 569 1047 z m 940 1231 l 653 1119 l 653 936 l 940 1047 z m 896 825 l 896 371 b 560 233 826 297 689 233 b 331 468 386 233 331 310 l 331 825 l 46 825 l 44 356 b 457 -14 46 54 254 -14 b 896 126 643 -14 788 46 l 896 0 l 1182 0 l 1182 825 z "},"ū":{"ha":1225,"x_min":0,"x_max":0,"o":"m 936 1117 l 285 1117 l 285 939 l 936 939 z m 896 825 l 896 371 b 560 233 826 297 689 233 b 331 468 386 233 331 310 l 331 825 l 46 825 l 44 356 b 457 -14 46 54 254 -14 b 896 126 643 -14 788 46 l 896 0 l 1182 0 l 1182 825 z "},"ų":{"ha":1225,"x_min":0,"x_max":0,"o":"m 1000 -81 b 1061 0 1000 -47 1032 -24 l 1182 0 l 1182 825 l 896 825 l 896 371 b 560 233 826 297 689 233 b 331 468 386 233 331 310 l 331 825 l 46 825 l 44 356 b 457 -14 46 54 254 -14 b 896 126 643 -14 788 46 l 896 0 l 919 0 b 813 -157 849 -46 813 -96 b 1213 -319 813 -293 953 -319 l 1213 -140 b 1000 -81 1097 -140 1000 -140 z "},"ů":{"ha":1225,"x_min":0,"x_max":0,"o":"m 611 917 b 903 1100 838 917 903 985 b 611 1283 903 1215 838 1283 b 319 1100 386 1283 319 1215 b 611 917 319 985 386 917 z m 611 1167 b 744 1100 690 1167 744 1156 b 611 1033 744 1044 690 1033 b 479 1100 533 1033 479 1044 b 611 1167 479 1156 533 1167 z m 896 825 l 896 371 b 560 233 826 297 689 233 b 331 468 386 233 331 310 l 331 825 l 46 825 l 44 356 b 457 -14 46 54 254 -14 b 896 126 643 -14 788 46 l 896 0 l 1182 0 l 1182 825 z "},"v":{"ha":1228,"x_min":0,"x_max":0,"o":"m 885 825 l 614 204 l 343 825 l 29 825 l 411 0 l 817 0 l 1197 825 z "},"w":{"ha":1910,"x_min":0,"x_max":0,"o":"m 1560 825 l 1329 243 l 1113 825 l 797 825 l 581 243 l 350 825 l 29 825 l 388 0 l 747 0 l 954 503 l 1161 0 l 1522 0 l 1879 825 z "},"ẃ":{"ha":1910,"x_min":0,"x_max":0,"o":"m 1224 1214 l 683 1103 l 683 925 l 1224 1036 z m 1560 825 l 1329 243 l 1113 825 l 797 825 l 581 243 l 350 825 l 29 825 l 388 0 l 747 0 l 954 503 l 1161 0 l 1522 0 l 1879 825 z "},"ŵ":{"ha":1910,"x_min":0,"x_max":0,"o":"m 1242 925 l 1242 1103 l 954 1214 l 667 1103 l 667 925 l 954 1036 z m 1560 825 l 1329 243 l 1113 825 l 797 825 l 581 243 l 350 825 l 29 825 l 388 0 l 747 0 l 954 503 l 1161 0 l 1522 0 l 1879 825 z "},"ẅ":{"ha":1910,"x_min":0,"x_max":0,"o":"m 904 1168 l 642 1168 l 642 943 l 904 943 z m 1265 1168 l 1003 1168 l 1003 943 l 1265 943 z m 1560 825 l 1329 243 l 1113 825 l 797 825 l 581 243 l 350 825 l 29 825 l 388 0 l 747 0 l 954 503 l 1161 0 l 1522 0 l 1879 825 z "},"ẁ":{"ha":1910,"x_min":0,"x_max":0,"o":"m 1225 1103 l 685 1214 l 685 1036 l 1225 925 z m 1560 825 l 1329 243 l 1113 825 l 797 825 l 581 243 l 350 825 l 29 825 l 388 0 l 747 0 l 954 503 l 1161 0 l 1522 0 l 1879 825 z "},"x":{"ha":1299,"x_min":0,"x_max":0,"o":"m 29 0 l 404 0 l 649 257 l 893 0 l 1268 0 l 847 413 l 1268 825 l 893 825 l 649 568 l 404 825 l 29 825 l 451 413 z "},"y":{"ha":1256,"x_min":0,"x_max":0,"o":"m 914 825 l 638 193 l 343 825 l 29 825 l 415 0 l 553 0 l 401 -347 l 713 -347 l 1225 825 z "},"ý":{"ha":1256,"x_min":0,"x_max":0,"o":"m 897 1214 l 357 1103 l 357 925 l 897 1036 z m 914 825 l 638 193 l 343 825 l 29 825 l 415 0 l 553 0 l 401 -347 l 713 -347 l 1225 825 z "},"ŷ":{"ha":1256,"x_min":0,"x_max":0,"o":"m 915 925 l 915 1103 l 628 1214 l 340 1103 l 340 925 l 628 1036 z m 914 825 l 638 193 l 343 825 l 29 825 l 415 0 l 553 0 l 401 -347 l 713 -347 l 1225 825 z "},"ÿ":{"ha":1256,"x_min":0,"x_max":0,"o":"m 578 1168 l 315 1168 l 315 943 l 578 943 z m 939 1168 l 676 1168 l 676 943 l 939 943 z m 914 825 l 638 193 l 343 825 l 29 825 l 415 0 l 553 0 l 401 -347 l 713 -347 l 1225 825 z "},"ỳ":{"ha":1256,"x_min":0,"x_max":0,"o":"m 899 1103 l 358 1214 l 358 1036 l 899 925 z m 914 825 l 638 193 l 343 825 l 29 825 l 415 0 l 553 0 l 401 -347 l 713 -347 l 1225 825 z "},"z":{"ha":1051,"x_min":0,"x_max":0,"o":"m 1007 825 l 43 825 l 43 588 l 589 588 l 43 238 l 43 0 l 1007 0 l 1007 238 l 463 238 l 1007 588 z "},"ź":{"ha":1051,"x_min":0,"x_max":0,"o":"m 794 1214 l 254 1103 l 254 925 l 794 1036 z m 1007 825 l 43 825 l 43 588 l 589 588 l 43 238 l 43 0 l 1007 0 l 1007 238 l 463 238 l 1007 588 z "},"ž":{"ha":1051,"x_min":0,"x_max":0,"o":"m 811 1039 l 811 1217 l 524 1106 l 236 1217 l 236 1039 l 524 928 z m 1007 825 l 43 825 l 43 588 l 589 588 l 43 238 l 43 0 l 1007 0 l 1007 238 l 463 238 l 1007 588 z "},"ż":{"ha":1051,"x_min":0,"x_max":0,"o":"m 676 1168 l 374 1168 l 374 943 l 676 943 z m 1007 825 l 43 825 l 43 588 l 589 588 l 43 238 l 43 0 l 1007 0 l 1007 238 l 463 238 l 1007 588 z "},"⁄":{"ha":744,"x_min":0,"x_max":0,"o":"m 701 1000 l 406 1000 l 44 -208 l 340 -208 z "},"*":{"ha":789,"x_min":0,"x_max":0,"o":"m 43 719 l 143 549 l 317 672 l 296 504 l 494 504 l 474 672 l 646 549 l 746 719 l 551 808 l 746 896 l 646 1068 l 474 944 l 494 1111 l 294 1111 l 317 944 l 143 1068 l 43 896 l 238 808 z "},"\\":{"ha":744,"x_min":0,"x_max":0,"o":"m 43 1000 l 404 -208 l 700 -208 l 339 1000 z "},"·":{"ha":374,"x_min":0,"x_max":0,"o":"m 43 550 l 43 332 l 329 332 l 329 550 z "},"•":{"ha":593,"x_min":0,"x_max":0,"o":"m 297 265 b 550 446 469 265 550 322 b 297 625 550 568 469 625 b 43 446 125 625 43 568 b 297 265 43 322 125 265 z "},":":{"ha":374,"x_min":0,"x_max":0,"o":"m 43 635 l 43 417 l 329 417 l 329 635 z m 43 218 l 43 0 l 329 0 l 329 218 z "},",":{"ha":374,"x_min":0,"x_max":0,"o":"m 43 218 l 43 0 l 146 0 l 64 -290 l 194 -290 l 329 0 l 329 218 z "},"…":{"ha":1092,"x_min":0,"x_max":0,"o":"m 43 218 l 43 0 l 329 0 l 329 218 z m 403 218 l 403 0 l 689 0 l 689 218 z m 761 218 l 761 0 l 1047 0 l 1047 218 z "},"!":{"ha":393,"x_min":0,"x_max":0,"o":"m 349 972 l 43 972 l 54 318 l 339 318 z m 53 218 l 53 0 l 339 0 l 339 218 z "},"¡":{"ha":393,"x_min":0,"x_max":0,"o":"m 53 615 l 339 615 l 339 833 l 53 833 z m 349 -139 l 339 515 l 54 515 l 43 -139 z "},"#":{"ha":1775,"x_min":0,"x_max":0,"o":"m 1703 547 l 1703 786 l 1478 786 l 1542 1000 l 1246 1000 l 1182 786 l 832 786 l 896 1000 l 600 1000 l 536 786 l 210 786 l 210 547 l 465 547 l 386 286 l 71 286 l 71 47 l 315 47 l 239 -208 l 535 -208 l 611 47 l 961 47 l 885 -208 l 1181 -208 l 1257 47 l 1564 47 l 1564 286 l 1328 286 l 1407 547 z m 1032 286 l 682 286 l 761 547 l 1111 547 z "},".":{"ha":374,"x_min":0,"x_max":0,"o":"m 43 218 l 43 0 l 329 0 l 329 218 z "},"?":{"ha":1135,"x_min":0,"x_max":0,"o":"m 653 318 b 1090 699 692 478 1090 413 b 581 986 1090 918 894 986 b 43 601 271 986 43 918 l 349 601 b 594 728 349 713 440 728 b 785 649 735 728 785 703 b 367 318 785 497 367 621 z m 365 218 l 365 0 l 651 0 l 651 218 z "},"¿":{"ha":1135,"x_min":0,"x_max":0,"o":"m 769 615 l 769 833 l 483 833 l 483 615 z m 482 515 b 44 135 443 356 44 421 b 554 -153 44 -85 240 -153 b 1092 232 864 -153 1092 -85 l 786 232 b 540 106 786 121 694 106 b 350 185 400 106 350 131 b 768 515 350 336 768 213 z "},"\"":{"ha":786,"x_min":0,"x_max":0,"o":"m 349 1000 l 43 1000 l 68 556 l 325 556 z m 742 1000 l 436 1000 l 461 556 l 718 556 z "},"'":{"ha":393,"x_min":0,"x_max":0,"o":"m 349 1000 l 43 1000 l 68 556 l 325 556 z "},";":{"ha":374,"x_min":0,"x_max":0,"o":"m 43 635 l 43 417 l 329 417 l 329 635 z m 43 0 l 146 0 l 64 -290 l 194 -290 l 329 0 l 329 218 l 43 218 z "},"/":{"ha":744,"x_min":0,"x_max":0,"o":"m 701 1000 l 406 1000 l 44 -208 l 340 -208 z "},"_":{"ha":1532,"x_min":0,"x_max":0,"o":"m 71 -71 l 71 -290 l 1460 -290 l 1460 -71 z "},"{":{"ha":879,"x_min":0,"x_max":0,"o":"m 43 251 b 249 113 165 251 249 251 b 835 -278 249 -193 317 -278 l 835 -19 b 474 210 560 -19 474 8 b 293 390 474 376 347 390 l 293 446 b 474 626 347 446 474 460 b 835 853 474 825 560 853 l 835 1111 b 249 724 338 1111 249 1029 b 43 585 249 585 165 585 z "},"}":{"ha":879,"x_min":0,"x_max":0,"o":"m 836 251 l 836 585 b 631 724 714 585 631 585 b 44 1111 631 1029 542 1111 l 44 853 b 406 626 319 853 406 825 b 586 446 406 460 532 446 l 586 390 b 406 210 532 390 406 376 b 44 -19 406 8 319 -19 l 44 -278 b 631 113 563 -278 631 -193 b 836 251 631 251 714 251 z "},"[":{"ha":879,"x_min":0,"x_max":0,"o":"m 835 853 l 835 1111 l 43 1111 l 43 -278 l 835 -278 l 835 -19 l 349 -19 l 349 853 z "},"]":{"ha":879,"x_min":0,"x_max":0,"o":"m 836 1111 l 44 1111 l 44 853 l 531 853 l 531 -19 l 44 -19 l 44 -278 l 836 -278 z "},"(":{"ha":879,"x_min":0,"x_max":0,"o":"m 43 418 b 835 -278 43 -115 243 -278 l 835 -19 b 349 418 442 -19 349 72 b 835 853 349 763 440 853 l 835 1111 b 43 418 243 1111 43 950 z "},")":{"ha":879,"x_min":0,"x_max":0,"o":"m 836 418 b 44 1111 836 950 636 1111 l 44 853 b 531 418 439 853 531 763 b 44 -19 531 72 438 -19 l 44 -278 b 836 418 636 -278 836 -115 z "},"—":{"ha":1810,"x_min":0,"x_max":0,"o":"m 71 592 l 71 353 l 1738 353 l 1738 592 z "},"–":{"ha":1532,"x_min":0,"x_max":0,"o":"m 71 592 l 71 353 l 1460 353 l 1460 592 z "},"-":{"ha":1254,"x_min":0,"x_max":0,"o":"m 71 592 l 71 353 l 1182 353 l 1182 592 z "},"«":{"ha":1376,"x_min":0,"x_max":0,"o":"m 404 825 l 43 413 l 404 0 l 796 0 l 435 413 l 796 825 z m 942 825 l 581 413 l 942 0 l 1333 0 l 972 413 l 1333 825 z "},"»":{"ha":1393,"x_min":0,"x_max":0,"o":"m 451 825 l 60 825 l 421 413 l 60 0 l 451 0 l 813 413 z m 989 825 l 597 825 l 958 413 l 597 0 l 989 0 l 1350 413 z "},"‹":{"ha":839,"x_min":0,"x_max":0,"o":"m 404 825 l 43 413 l 404 0 l 796 0 l 435 413 l 796 825 z "},"›":{"ha":839,"x_min":0,"x_max":0,"o":"m 435 825 l 43 825 l 404 413 l 43 0 l 435 0 l 796 413 z "},"„":{"ha":731,"x_min":0,"x_max":0,"o":"m 43 0 l 146 0 l 64 -290 l 194 -290 l 329 0 l 329 218 l 43 218 z m 400 218 l 400 0 l 503 0 l 421 -290 l 551 -290 l 686 0 l 686 218 z "},"“":{"ha":810,"x_min":0,"x_max":0,"o":"m 54 556 l 340 556 l 396 1000 l 147 1000 z m 411 556 l 697 556 l 753 1000 l 504 1000 z "},"”":{"ha":793,"x_min":0,"x_max":0,"o":"m 399 1000 l 113 1000 l 57 556 l 306 556 z m 756 1000 l 469 1000 l 414 556 l 663 556 z "},"‘":{"ha":436,"x_min":0,"x_max":0,"o":"m 38 556 l 324 556 l 379 1000 l 131 1000 z "},"’":{"ha":457,"x_min":0,"x_max":0,"o":"m 399 1000 l 113 1000 l 57 556 l 306 556 z "},"‚":{"ha":374,"x_min":0,"x_max":0,"o":"m 43 218 l 43 0 l 146 0 l 64 -290 l 194 -290 l 329 0 l 329 218 z "}," ":{"ha":596,"x_min":0,"x_max":0,"o":""},"¢":{"ha":1271,"x_min":0,"x_max":0,"o":"m 729 301 l 729 671 b 908 558 824 660 886 626 l 1200 558 b 729 910 1169 785 996 890 l 729 1111 l 563 1111 l 563 911 b 71 486 260 893 71 768 b 563 61 71 204 260 79 l 563 -139 l 729 -139 l 729 63 b 1200 414 996 82 1169 188 l 908 414 b 729 301 886 346 824 313 z m 357 486 b 563 672 357 610 432 660 l 563 300 b 357 486 432 313 357 363 z "},"¤":{"ha":1276,"x_min":0,"x_max":0,"o":"m 1204 482 b 1058 804 1204 631 1151 736 l 1203 949 l 1088 1064 l 901 878 b 638 908 825 899 736 908 b 390 882 546 908 463 900 l 208 1064 l 93 949 l 229 813 b 71 482 128 744 71 636 b 232 150 71 326 129 218 l 93 11 l 208 -104 l 394 82 b 638 56 465 64 547 56 b 897 86 735 56 822 65 l 1088 -104 l 1203 11 l 1056 158 b 1204 482 1151 226 1204 332 z m 357 482 b 638 671 357 628 454 671 b 919 482 822 671 919 628 b 638 293 919 336 822 293 b 357 482 454 293 357 336 z "},"$":{"ha":1385,"x_min":0,"x_max":0,"o":"m 1313 310 b 785 599 1313 540 1113 579 l 785 744 b 965 650 910 736 965 711 l 1271 650 b 785 983 1271 871 1094 967 l 785 1111 l 618 1111 l 618 985 b 93 693 283 976 93 894 b 618 388 93 483 242 408 l 618 225 b 376 339 426 235 376 274 l 71 339 b 618 -12 71 74 269 -3 l 618 -139 l 785 -139 l 785 -12 b 1313 310 1114 -4 1313 67 z m 399 678 b 618 749 399 729 440 747 l 618 607 b 399 678 436 617 399 626 z m 785 225 l 785 379 b 1007 301 974 369 1007 356 b 785 225 1007 251 963 229 z "},"€":{"ha":1171,"x_min":0,"x_max":0,"o":"m 742 867 b 1099 825 844 867 946 853 l 1099 1083 b 704 1125 946 1111 844 1125 b 196 692 390 1125 239 979 l 71 692 l 71 533 l 182 533 b 182 488 182 518 182 503 l 182 442 l 71 442 l 71 283 l 194 283 b 704 -153 238 -14 388 -153 b 1099 -111 844 -153 946 -139 l 1099 147 b 742 106 946 119 844 106 b 503 283 593 106 529 163 l 938 283 l 938 442 l 488 442 b 488 488 488 457 488 472 l 488 533 l 938 533 l 938 692 l 503 692 b 742 867 529 811 594 867 z "},"£":{"ha":1171,"x_min":0,"x_max":0,"o":"m 769 867 b 1099 825 872 867 960 853 l 1099 1083 b 704 1125 946 1111 844 1125 b 238 600 308 1125 188 947 l 71 600 l 71 442 l 254 442 b 71 119 258 272 194 217 l 71 -139 l 1099 -139 l 1099 119 l 376 119 b 556 442 490 196 557 275 l 938 442 l 938 600 l 542 600 b 769 867 521 781 551 867 z "},"¥":{"ha":1493,"x_min":0,"x_max":0,"o":"m 1421 1111 l 1061 1111 l 746 710 l 432 1111 l 71 1111 l 540 524 l 203 524 l 203 365 l 593 365 l 593 274 l 203 274 l 203 115 l 593 115 l 593 -139 l 899 -139 l 899 115 l 1292 115 l 1292 274 l 899 274 l 899 365 l 1292 365 l 1292 524 l 951 524 z "},"+":{"ha":1254,"x_min":0,"x_max":0,"o":"m 1182 592 l 750 592 l 750 944 l 464 944 l 464 592 l 71 592 l 71 353 l 464 353 l 464 0 l 750 0 l 750 353 l 1182 353 z "},"−":{"ha":1254,"x_min":0,"x_max":0,"o":"m 71 592 l 71 353 l 1182 353 l 1182 592 z "},"×":{"ha":1225,"x_min":0,"x_max":0,"o":"m 1154 638 l 1035 844 l 613 601 l 190 844 l 71 638 l 374 463 l 72 289 l 192 82 l 613 325 l 1033 82 l 1153 289 l 851 463 z "},"÷":{"ha":1254,"x_min":0,"x_max":0,"o":"m 483 913 l 483 694 l 769 694 l 769 913 z m 71 592 l 71 353 l 1182 353 l 1182 592 z m 483 250 l 483 32 l 769 32 l 769 250 z "},"=":{"ha":1254,"x_min":0,"x_max":0,"o":"m 71 814 l 71 575 l 1182 575 l 1182 814 z m 71 369 l 71 131 l 1182 131 l 1182 369 z "},"≠":{"ha":1254,"x_min":0,"x_max":0,"o":"m 1182 575 l 1182 814 l 879 814 l 957 1076 l 661 1076 l 583 814 l 71 814 l 71 575 l 511 575 l 450 369 l 71 369 l 71 131 l 378 131 l 300 -132 l 596 -132 l 674 131 l 1182 131 l 1182 369 l 746 369 l 807 575 z "},">":{"ha":1129,"x_min":0,"x_max":0,"o":"m 71 833 l 71 589 l 844 472 l 71 356 l 71 111 l 1057 278 l 1057 667 z "},"<":{"ha":1129,"x_min":0,"x_max":0,"o":"m 1058 833 l 72 667 l 72 278 l 1058 111 l 1058 356 l 285 472 l 1058 589 z "},"≥":{"ha":1129,"x_min":0,"x_max":0,"o":"m 71 972 l 71 731 l 836 638 l 71 543 l 71 301 l 1057 464 l 1057 810 z m 71 0 l 1057 0 l 1057 238 l 71 238 z "},"≤":{"ha":1129,"x_min":0,"x_max":0,"o":"m 1058 972 l 72 810 l 72 464 l 1058 301 l 1058 543 l 293 638 l 1058 731 z m 72 0 l 1058 0 l 1058 238 l 72 238 z "},"±":{"ha":1254,"x_min":0,"x_max":0,"o":"m 750 772 l 750 972 l 464 972 l 464 772 l 71 772 l 71 533 l 464 533 l 464 333 l 750 333 l 750 533 l 1182 533 l 1182 772 z m 71 19 l 1182 19 l 1182 258 l 71 258 z "},"≈":{"ha":1254,"x_min":0,"x_max":0,"o":"m 71 528 l 338 528 b 457 714 338 675 379 714 b 876 528 621 714 661 528 b 1182 972 1108 528 1182 694 l 917 972 b 797 786 917 825 875 786 b 376 972 633 786 593 972 b 71 528 144 972 71 806 z m 71 0 l 338 0 b 457 186 338 147 379 186 b 876 0 621 186 661 0 b 1182 444 1108 0 1182 167 l 917 444 b 797 258 917 297 875 258 b 376 444 633 258 593 444 b 71 0 144 444 71 278 z "},"~":{"ha":1254,"x_min":0,"x_max":0,"o":"m 71 250 l 338 250 b 457 436 338 397 379 436 b 876 250 621 436 661 250 b 1182 694 1108 250 1182 417 l 917 694 b 797 508 917 547 875 508 b 376 694 633 508 593 694 b 71 250 144 694 71 528 z "},"¬":{"ha":1254,"x_min":0,"x_max":0,"o":"m 1182 592 l 71 592 l 71 353 l 897 353 l 897 93 l 1182 93 z "},"∅":{"ha":1593,"x_min":0,"x_max":0,"o":"m 1519 1039 l 1350 1210 l 1181 1040 b 797 1125 1078 1094 949 1125 b 99 488 342 1125 99 847 b 228 88 99 335 143 196 l 74 -67 l 243 -237 l 414 -67 b 797 -153 517 -122 646 -153 b 1494 488 1254 -153 1494 128 b 1367 886 1494 640 1451 778 z m 385 488 b 797 888 385 743 525 888 b 994 854 874 888 940 876 l 424 283 b 385 488 399 340 385 408 z m 1210 488 b 797 85 1210 231 1069 85 b 599 118 721 85 654 96 l 1171 690 b 1210 488 1197 633 1210 567 z "},"∞":{"ha":1786,"x_min":0,"x_max":0,"o":"m 71 415 b 472 28 71 172 208 28 b 892 267 651 28 768 103 b 1313 28 1015 103 1133 28 b 1714 415 1576 28 1714 172 b 1313 808 1714 651 1564 808 b 893 567 1133 808 1017 732 b 472 808 769 732 651 808 b 71 415 221 808 71 651 z m 357 415 b 513 571 357 517 410 571 b 739 417 588 571 654 539 b 513 265 656 296 589 265 b 357 415 396 265 357 310 z m 1047 415 b 1274 571 1131 539 1199 571 b 1429 415 1376 571 1429 517 b 1274 265 1429 310 1390 265 b 1047 415 1196 265 1128 296 z "},"∫":{"ha":1356,"x_min":0,"x_max":0,"o":"m 71 -208 b 781 275 347 -208 664 -210 l 869 628 b 1283 874 932 878 1142 874 l 1283 1111 b 575 628 1007 1111 692 1113 l 486 275 b 71 29 424 25 214 29 z "},"∏":{"ha":1786,"x_min":0,"x_max":0,"o":"m 1714 1000 l 71 1000 l 71 722 l 372 722 l 372 -208 l 658 -208 l 658 722 l 1128 722 l 1128 -208 l 1414 -208 l 1414 722 l 1714 722 z "},"∑":{"ha":1171,"x_min":0,"x_max":0,"o":"m 1099 1111 l 71 1111 l 71 874 l 513 451 l 71 29 l 71 -208 l 1099 -208 l 1099 29 l 436 29 l 876 451 l 436 874 l 1099 874 z "},"√":{"ha":1851,"x_min":0,"x_max":0,"o":"m 1779 1111 l 1186 1111 l 818 0 l 583 488 l 71 488 l 71 250 l 397 250 l 606 -208 l 1038 -208 l 1403 874 l 1779 874 z "},"∂":{"ha":1342,"x_min":0,"x_max":0,"o":"m 376 1111 l 340 869 b 981 413 674 843 943 703 b 529 583 869 507 722 583 b 71 192 206 583 71 425 b 615 -208 71 -97 283 -208 b 1269 342 947 -208 1269 -60 b 376 1111 1269 806 853 1083 z m 608 29 b 357 192 429 29 357 83 b 569 346 357 308 439 346 b 940 169 675 346 824 300 b 608 29 878 74 758 29 z "},"%":{"ha":2315,"x_min":0,"x_max":0,"o":"m 494 360 b 919 743 806 360 919 531 b 494 1125 919 954 806 1125 b 71 743 186 1125 71 954 b 494 360 71 531 186 360 z m 1488 1111 l 1192 1111 l 831 -97 l 1126 -97 z m 494 597 b 357 743 411 597 357 624 b 494 888 357 863 411 888 b 635 743 581 888 635 863 b 494 597 635 624 581 597 z m 1818 -111 b 2243 272 2129 -111 2243 60 b 1818 654 2243 483 2129 654 b 1394 272 1510 654 1394 483 b 1818 -111 1394 60 1510 -111 z m 1818 126 b 1681 272 1735 126 1681 153 b 1818 417 1681 392 1735 417 b 1958 272 1904 417 1958 392 b 1818 126 1958 153 1904 126 z "},"‰":{"ha":3256,"x_min":0,"x_max":0,"o":"m 494 360 b 919 743 806 360 919 531 b 494 1125 919 954 806 1125 b 71 743 186 1125 71 954 b 494 360 71 531 186 360 z m 1488 1111 l 1192 1111 l 831 -97 l 1126 -97 z m 494 597 b 357 743 411 597 357 624 b 494 888 357 863 411 888 b 635 743 581 888 635 863 b 494 597 635 624 581 597 z m 1818 -111 b 2243 272 2129 -111 2243 60 b 1818 654 2243 483 2129 654 b 1394 272 1510 654 1394 483 b 1818 -111 1394 60 1510 -111 z m 2758 -111 b 3183 272 3068 -111 3183 60 b 2758 654 3183 483 3068 654 b 2335 272 2450 654 2335 483 b 2758 -111 2335 60 2450 -111 z m 1818 126 b 1681 272 1735 126 1681 153 b 1818 417 1681 392 1735 417 b 1958 272 1904 417 1958 392 b 1818 126 1958 153 1904 126 z m 2758 126 b 2621 272 2675 126 2621 153 b 2758 417 2621 392 2675 417 b 2897 272 2844 417 2897 392 b 2758 126 2897 153 2844 126 z "},"↑":{"ha":1539,"x_min":0,"x_max":0,"o":"m 769 -153 b 1467 488 1226 -153 1467 128 b 769 1125 1467 847 1226 1125 b 71 488 314 1125 71 847 b 769 -153 71 128 314 -153 z m 868 42 l 672 42 l 672 582 l 510 410 l 371 564 l 768 958 l 1168 564 l 1031 410 l 868 582 z "},"↗":{"ha":1539,"x_min":0,"x_max":0,"o":"m 769 -153 b 1467 488 1226 -153 1467 128 b 769 1125 1467 847 1226 1125 b 71 488 314 1125 71 847 b 769 -153 71 128 314 -153 z m 539 117 l 400 256 l 782 638 l 542 631 l 557 836 l 1117 835 l 1119 274 l 914 258 l 921 499 z "},"→":{"ha":1539,"x_min":0,"x_max":0,"o":"m 769 -153 b 1467 488 1226 -153 1467 128 b 769 1125 1467 847 1226 1125 b 71 488 314 1125 71 847 b 769 -153 71 128 314 -153 z m 324 388 l 324 585 l 864 585 l 692 746 l 846 885 l 1240 488 l 846 88 l 692 226 l 864 388 z "},"↘":{"ha":1539,"x_min":0,"x_max":0,"o":"m 769 1125 b 71 485 314 1125 71 844 b 769 -153 71 125 314 -153 b 1467 485 1226 -153 1467 125 b 769 1125 1467 844 1226 1125 z m 539 856 l 921 474 l 914 714 l 1119 699 l 1117 138 l 557 136 l 542 342 l 782 335 l 400 717 z "},"↓":{"ha":1539,"x_min":0,"x_max":0,"o":"m 769 1125 b 71 485 314 1125 71 844 b 769 -153 71 125 314 -153 b 1467 485 1226 -153 1467 125 b 769 1125 1467 844 1226 1125 z m 868 931 l 868 390 l 1031 563 l 1168 408 l 768 14 l 371 408 l 510 563 l 672 390 l 672 931 z "},"↙":{"ha":1539,"x_min":0,"x_max":0,"o":"m 769 1125 b 72 485 313 1125 72 844 b 769 -153 72 125 313 -153 b 1468 485 1225 -153 1468 125 b 769 1125 1468 844 1225 1125 z m 1000 856 l 1139 717 l 757 335 l 997 342 l 982 136 l 422 138 l 419 699 l 625 714 l 618 474 z "},"←":{"ha":1539,"x_min":0,"x_max":0,"o":"m 769 -153 b 1468 488 1225 -153 1468 128 b 769 1125 1468 847 1225 1125 b 72 488 313 1125 72 847 b 769 -153 72 128 313 -153 z m 1215 388 l 675 388 l 847 226 l 693 88 l 299 488 l 693 885 l 847 746 l 675 585 l 1215 585 z "},"↖":{"ha":1539,"x_min":0,"x_max":0,"o":"m 769 -153 b 1468 488 1225 -153 1468 128 b 769 1125 1468 847 1225 1125 b 72 488 313 1125 72 847 b 769 -153 72 128 313 -153 z m 1000 117 l 618 499 l 625 258 l 419 274 l 422 835 l 982 836 l 997 631 l 757 638 l 1139 256 z "},"↔":{"ha":1539,"x_min":0,"x_max":0,"o":"m 769 -153 b 1467 488 1226 -153 1467 128 b 769 1125 1467 847 1226 1125 b 71 488 314 1125 71 847 b 769 -153 71 128 314 -153 z m 1306 485 l 1008 88 l 853 226 l 986 392 l 557 390 l 690 226 l 533 88 l 233 483 l 533 885 l 690 746 l 557 581 l 986 581 l 853 746 l 1008 885 z "},"↕":{"ha":1539,"x_min":0,"x_max":0,"o":"m 769 -153 b 1467 488 1226 -153 1467 128 b 769 1125 1467 847 1226 1125 b 71 488 314 1125 71 847 b 769 -153 71 128 314 -153 z m 771 1000 l 1168 703 l 1031 547 l 864 681 l 864 294 l 1031 428 l 1168 272 l 772 -28 l 371 272 l 510 428 l 676 294 l 676 681 l 510 547 l 371 703 z "},"◊":{"ha":1256,"x_min":0,"x_max":0,"o":"m 819 1111 l 438 1111 l 71 486 l 438 -139 l 819 -139 l 1183 486 z m 628 4 l 346 486 l 628 968 l 908 486 z "},"@":{"ha":1681,"x_min":0,"x_max":0,"o":"m 903 1125 b 71 372 385 1125 71 861 b 1228 -400 71 -218 372 -400 l 1242 -162 b 357 372 636 -162 357 -111 b 917 888 357 742 579 888 b 1321 642 1088 888 1303 863 b 985 751 1247 715 1135 754 b 543 363 751 749 543 678 b 985 -26 543 49 751 -29 b 1324 89 1136 -24 1250 15 l 1324 -12 l 1608 -12 l 1608 551 b 903 1125 1608 947 1413 1125 z m 1076 213 b 829 363 921 213 829 243 b 1076 514 829 483 921 514 b 1322 382 1222 514 1313 486 l 1322 344 b 1076 213 1314 240 1222 213 z "},"&":{"ha":1481,"x_min":0,"x_max":0,"o":"m 1438 199 b 1250 279 1371 228 1308 254 b 1371 449 1293 329 1333 385 l 1117 546 b 990 396 1079 490 1038 440 b 764 507 899 438 824 475 b 1088 760 968 565 1088 639 b 675 986 1088 906 904 986 b 256 746 401 986 256 906 b 344 542 256 671 283 606 b 43 268 200 513 43 450 b 546 -14 43 92 199 -14 b 1065 119 751 -14 922 29 b 1314 0 1142 82 1225 43 z m 675 788 b 801 717 758 788 801 761 b 621 597 801 661 731 625 b 542 708 563 642 542 675 b 675 788 542 761 590 788 z m 564 224 b 329 328 406 224 329 258 b 472 436 329 381 388 411 b 779 260 551 382 651 325 b 564 224 715 236 644 224 z "},"¶":{"ha":1294,"x_min":0,"x_max":0,"o":"m 511 1000 b 71 707 290 1000 71 992 b 511 413 71 421 290 413 l 511 -208 l 796 -208 l 796 1000 z m 936 1000 l 936 -208 l 1222 -208 l 1222 1000 z "},"§":{"ha":1196,"x_min":0,"x_max":0,"o":"m 1014 274 b 1096 485 1072 353 1096 419 b 635 746 1096 639 997 726 b 357 846 396 761 357 772 b 578 926 357 917 414 926 b 824 832 747 926 824 915 l 1108 832 b 594 1125 1108 1069 890 1125 b 71 832 319 1125 71 1082 b 183 629 71 743 107 678 b 101 418 125 551 101 483 b 561 154 101 264 199 175 b 839 57 800 140 839 131 b 619 -24 839 -14 782 -24 b 374 71 449 -24 374 -12 l 88 71 b 601 -222 88 -168 306 -222 b 1125 71 878 -222 1125 -179 b 1014 274 1125 160 1090 225 z m 381 557 b 615 528 447 543 525 533 b 814 344 811 514 913 493 b 581 374 749 358 671 368 b 381 557 385 388 283 410 z "},"©":{"ha":1539,"x_min":0,"x_max":0,"o":"m 769 -153 b 1467 488 1226 -153 1467 128 b 769 1125 1467 847 1226 1125 b 71 488 314 1125 71 847 b 769 -153 71 128 314 -153 z m 769 6 b 231 488 439 6 231 171 b 769 967 231 803 438 967 b 1308 488 1101 967 1308 804 b 769 6 1308 171 1100 6 z m 367 486 b 771 179 367 267 518 179 b 1172 442 1006 179 1153 254 l 951 442 b 771 361 933 375 856 361 b 585 486 664 361 585 382 b 771 611 585 590 664 611 b 951 531 856 611 933 597 l 1172 531 b 771 793 1153 718 1006 793 b 367 486 518 793 367 706 z "},"®":{"ha":1076,"x_min":0,"x_max":0,"o":"m 538 1125 b 71 706 225 1125 71 950 b 538 286 71 461 225 286 b 1004 706 850 286 1004 461 b 538 1125 1004 950 850 1125 z m 538 425 b 210 706 329 425 210 518 b 538 986 210 893 329 986 b 865 706 747 986 865 893 b 538 425 865 518 747 425 z m 756 749 b 624 876 756 825 701 876 l 356 876 l 356 535 l 463 535 l 463 621 l 571 621 l 622 535 l 750 535 l 688 635 b 756 749 729 656 756 696 z m 463 786 l 600 786 b 647 749 619 786 647 786 b 600 711 647 711 619 711 l 463 711 z "},"™":{"ha":1474,"x_min":0,"x_max":0,"o":"m 649 1110 l 71 1110 l 71 985 l 286 985 l 286 640 l 433 640 l 433 985 l 649 985 z m 1401 1110 l 1213 1110 l 1042 810 l 871 1110 l 682 1110 l 682 640 l 829 640 l 829 917 l 992 640 l 1092 640 l 1254 915 l 1254 640 l 1401 640 z "},"°":{"ha":992,"x_min":0,"x_max":0,"o":"m 494 360 b 919 743 806 360 919 531 b 494 1125 919 954 806 1125 b 71 743 186 1125 71 954 b 494 360 71 531 186 360 z m 494 597 b 357 743 403 597 357 628 b 494 888 357 858 403 888 b 635 743 589 888 635 858 b 494 597 635 628 589 597 z "},"|":{"ha":429,"x_min":0,"x_max":0,"o":"m 71 1000 l 71 -208 l 357 -208 l 357 1000 z "},"¦":{"ha":429,"x_min":0,"x_max":0,"o":"m 71 1000 l 71 521 l 357 521 l 357 1000 z m 71 271 l 71 -208 l 357 -208 l 357 271 z "},"†":{"ha":1254,"x_min":0,"x_max":0,"o":"m 1182 703 l 771 703 l 771 1000 l 485 1000 l 485 703 l 71 703 l 71 464 l 485 464 l 485 -208 l 771 -208 l 771 464 l 1182 464 z "},"‡":{"ha":1254,"x_min":0,"x_max":0,"o":"m 1182 464 l 1182 703 l 771 703 l 771 1000 l 485 1000 l 485 703 l 71 703 l 71 464 l 485 464 l 485 328 l 71 328 l 71 89 l 485 89 l 485 -208 l 771 -208 l 771 89 l 1182 89 l 1182 328 l 771 328 l 771 464 z "},"^":{"ha":1256,"x_min":0,"x_max":0,"o":"m 1183 486 l 819 1111 l 438 1111 l 71 486 l 346 486 l 628 968 l 908 486 z "},"̈":{"ha":0,"x_min":0,"x_max":0,"o":"m -694 1168 l -694 943 l -432 943 l -432 1168 z m -333 1168 l -333 943 l -71 943 l -71 1168 z "},"̇":{"ha":0,"x_min":0,"x_max":0,"o":"m -374 1168 l -374 943 l -71 943 l -71 1168 z "},"̀":{"ha":0,"x_min":0,"x_max":0,"o":"m -71 1103 l -611 1214 l -611 1036 l -71 925 z "},"́":{"ha":0,"x_min":0,"x_max":0,"o":"m -612 1103 l -612 925 l -72 1036 l -72 1214 z "},"̋":{"ha":0,"x_min":0,"x_max":0,"o":"m -731 1119 l -731 936 l -443 1047 l -443 1231 z m -360 1119 l -360 936 l -72 1047 l -72 1231 z "},"̂":{"ha":0,"x_min":0,"x_max":0,"o":"m -360 1214 l -647 1103 l -647 925 l -360 1036 l -72 925 l -72 1103 z "},"̌":{"ha":0,"x_min":0,"x_max":0,"o":"m -361 1106 l -649 1217 l -649 1039 l -361 928 l -74 1039 l -74 1217 z "},"̆":{"ha":0,"x_min":0,"x_max":0,"o":"m -703 1208 b -387 907 -703 963 -560 907 b -72 1208 -215 907 -72 963 l -231 1208 b -387 1061 -231 1103 -285 1061 b -543 1208 -490 1061 -543 1103 z "},"̊":{"ha":0,"x_min":0,"x_max":0,"o":"m -364 917 b -72 1100 -137 917 -72 985 b -364 1283 -72 1215 -137 1283 b -656 1100 -589 1283 -656 1215 b -364 917 -656 985 -589 917 z m -364 1033 b -496 1100 -442 1033 -496 1044 b -364 1167 -496 1156 -442 1167 b -231 1100 -285 1167 -231 1156 b -364 1033 -231 1044 -285 1033 z "},"̃":{"ha":0,"x_min":0,"x_max":0,"o":"m -878 931 l -651 931 b -578 1033 -651 999 -633 1033 b -278 917 -464 1033 -429 917 b -72 1208 -125 917 -72 1061 l -297 1208 b -371 1106 -297 1140 -315 1106 b -671 1222 -485 1106 -519 1222 b -878 931 -824 1222 -878 1078 z "},"̄":{"ha":0,"x_min":0,"x_max":0,"o":"m -724 1117 l -724 939 l -72 939 l -72 1117 z "},"̒":{"ha":0,"x_min":0,"x_max":0,"o":"m -71 976 l -71 1135 l -158 1135 l -71 1288 l -190 1288 l -318 1135 l -318 976 z "},"̦":{"ha":0,"x_min":0,"x_max":0,"o":"m -318 -74 l -318 -232 l -231 -232 l -318 -385 l -199 -385 l -71 -232 l -71 -74 z "},"̧":{"ha":0,"x_min":0,"x_max":0,"o":"m -317 -65 l -292 0 l -462 0 l -485 -49 l -403 -129 b -258 -149 -294 -104 -258 -115 b -511 -197 -258 -197 -329 -224 l -511 -319 b -72 -161 -297 -346 -72 -319 b -317 -65 -72 -28 -232 -39 z "},"̨":{"ha":0,"x_min":0,"x_max":0,"o":"m -72 -140 b -285 -81 -187 -140 -285 -140 b -224 0 -285 -47 -253 -24 l -365 0 b -472 -157 -436 -46 -472 -96 b -72 -319 -472 -293 -332 -319 z "},"̵":{"ha":0,"x_min":0,"x_max":0,"o":"m -739 561 l -739 383 l -72 383 l -72 561 z "},"̶":{"ha":0,"x_min":0,"x_max":0,"o":"m -1461 561 l -1461 383 l -72 383 l -72 561 z "},"̷":{"ha":0,"x_min":0,"x_max":0,"o":"m -43 1000 l -339 1000 l -700 -208 l -404 -208 z "},"̸":{"ha":0,"x_min":0,"x_max":0,"o":"m -92 1000 l -311 1000 l -672 -208 l -453 -208 z "},"´":{"ha":683,"x_min":0,"x_max":0,"o":"m 71 1103 l 71 925 l 611 1036 l 611 1214 z "},"˘":{"ha":774,"x_min":0,"x_max":0,"o":"m 71 1208 b 386 907 71 963 214 907 b 701 1208 558 907 701 963 l 543 1208 b 386 1061 543 1103 489 1061 b 231 1208 283 1061 231 1103 z "},"ˇ":{"ha":718,"x_min":0,"x_max":0,"o":"m 357 1106 l 69 1217 l 69 1039 l 357 928 l 644 1039 l 644 1217 z "},"¸":{"ha":582,"x_min":0,"x_max":0,"o":"m 265 -65 l 290 0 l 119 0 l 97 -49 l 179 -129 b 324 -149 288 -104 324 -115 b 71 -197 324 -197 253 -224 l 71 -319 b 510 -161 285 -346 510 -319 b 265 -65 510 -28 350 -39 z "},"ˆ":{"ha":718,"x_min":0,"x_max":0,"o":"m 358 1214 l 71 1103 l 71 925 l 358 1036 l 646 925 l 646 1103 z "},"¨":{"ha":765,"x_min":0,"x_max":0,"o":"m 71 1168 l 71 943 l 333 943 l 333 1168 z m 432 1168 l 432 943 l 694 943 l 694 1168 z "},"˙":{"ha":444,"x_min":0,"x_max":0,"o":"m 71 1168 l 71 943 l 374 943 l 374 1168 z "},"`":{"ha":683,"x_min":0,"x_max":0,"o":"m 613 1103 l 72 1214 l 72 1036 l 613 925 z "},"˝":{"ha":801,"x_min":0,"x_max":0,"o":"m 71 1119 l 71 936 l 358 1047 l 358 1231 z m 442 1119 l 442 936 l 729 1047 l 729 1231 z "},"¯":{"ha":794,"x_min":0,"x_max":0,"o":"m 71 1117 l 71 939 l 722 939 l 722 1117 z "},"˛":{"ha":543,"x_min":0,"x_max":0,"o":"m 471 -140 b 258 -81 356 -140 258 -140 b 319 0 258 -47 290 -24 l 178 0 b 71 -157 107 -46 71 -96 b 471 -319 71 -293 211 -319 z "},"˚":{"ha":726,"x_min":0,"x_max":0,"o":"m 363 917 b 654 1100 589 917 654 985 b 363 1283 654 1215 589 1283 b 71 1100 138 1283 71 1215 b 363 917 71 985 138 917 z m 363 1033 b 231 1100 285 1033 231 1044 b 363 1167 231 1156 285 1167 b 496 1100 442 1167 496 1156 b 363 1033 496 1044 442 1033 z "},"˜":{"ha":949,"x_min":0,"x_max":0,"o":"m 71 931 l 297 931 b 371 1033 297 999 315 1033 b 671 917 485 1033 519 917 b 876 1208 824 917 876 1061 l 651 1208 b 578 1106 651 1140 633 1106 b 278 1222 464 1106 429 1222 b 71 931 125 1222 71 1078 z "}}}
